<svg width="53" height="67" viewBox="0 0 53 67" fill="none" xmlns="http://www.w3.org/2000/svg">
<path d="M13.4926 32.2448C13.4926 30.2775 12.3048 29.5723 10.5602 29.5723C8.81566 29.5723 7.62787 30.2775 7.62787 32.2448V35.0658C7.62787 37.0331 8.81566 37.7383 10.5602 37.7383C12.3048 37.7383 13.4926 37.0331 13.4926 35.0658V34.7317H11.7109V35.2514C11.7109 36.1051 11.2655 36.365 10.5602 36.365C9.85498 36.365 9.40956 36.1422 9.40956 35.2514V32.0221C9.40956 31.1684 9.85498 30.9085 10.5602 30.9085C11.2655 30.9085 11.7109 31.1312 11.7109 32.0221V32.2448H13.4926Z" fill="black"/>
<path d="M20.0254 29.6837L18.5407 32.8759L16.9817 29.6837H15.0887L17.6127 34.3978V37.59H19.3944V34.3978L21.9185 29.6837H20.0254Z" fill="black"/>
<path d="M29.1566 31.7252C29.1566 30.3518 28.0802 29.6837 26.1871 29.6837H23.6631V37.6271H26.2614C28.1544 37.6271 29.3793 36.8847 29.3793 35.3257C29.3793 34.3235 28.971 33.8781 28.006 33.3585C28.7483 32.9873 29.1566 33.0986 29.1566 31.7252ZM25.519 30.9457H26.2243C27.0409 30.9457 27.4492 31.3912 27.4492 31.9108C27.4492 32.4305 26.8924 32.8388 26.1129 32.8388H25.519V30.9457ZM26.2243 36.3651H25.4819V34.0637H26.1129C27.0038 34.0637 27.6348 34.5091 27.6348 35.2144C27.6348 35.9196 27.1522 36.3651 26.2243 36.3651Z" fill="black"/>
<path d="M36.5061 31.02V29.6837H31.6436V37.59H36.6174V36.2537H33.4252V34.1751H35.7637V32.8388H33.4252V31.02H36.5061Z" fill="black"/>
<path d="M44.598 32.0593C44.598 30.5746 43.5586 29.6837 41.4429 29.6837H38.8817V37.6271H40.6634V34.3978H41.5171L43.039 37.6271V37.59H44.932L43.1875 34.0637C44.1897 33.7668 44.598 33.544 44.598 32.0593ZM41.5914 33.1357H40.6634V30.9086H41.5914C42.3709 30.9086 42.8534 31.2427 42.8534 32.0222C42.8534 32.8017 42.3709 33.1357 41.5914 33.1357Z" fill="black"/>
<path d="M9.37241 44.3826C9.00122 44.3826 8.59292 44.1228 8.44445 43.4175L7.25665 43.6402C7.59072 44.828 8.03614 45.3106 9.29817 45.3106C10.5602 45.3106 11.3026 45.4591 11.3026 43.6031C11.3026 41.7472 8.63004 41.673 8.63004 40.7821C8.63004 40.4109 8.85275 40.1511 9.29817 40.1511C9.74359 40.1511 10.0034 40.3738 10.189 40.9306V40.9677L11.2655 40.6708C11.0427 39.817 10.5973 39.2231 9.33529 39.2231C8.07326 39.2231 7.44225 39.2231 7.44225 40.8935C7.44225 42.5638 10.1148 42.5638 10.1148 43.6774C10.1148 44.1228 9.74359 44.3826 9.37241 44.3826Z" fill="black"/>
<path d="M12.676 45.2363H16.0166V44.2341H13.8638V42.6751H15.4599V41.6729H13.8638V40.2996H15.9424V39.2974H12.676V45.2363Z" fill="black"/>
<path d="M21.1391 41.1904C21.1391 39.7428 20.3225 39.2231 19.1718 39.2231C18.0211 39.2231 17.2045 39.7428 17.2045 41.1904V43.3062C17.2045 44.7538 18.0211 45.2735 19.1718 45.2735C20.3225 45.2735 21.1391 44.7538 21.1391 43.3062V43.0464H19.9513V43.4547C19.9513 44.1228 19.6544 44.3084 19.1718 44.3084C18.6893 44.3084 18.3923 44.1228 18.3923 43.4547V41.042C18.3923 40.3738 18.6893 40.1882 19.1718 40.1882C19.6544 40.1882 19.9513 40.3738 19.9513 41.042V41.1904H21.1391Z" fill="black"/>
<path d="M22.5495 43.4546C22.5495 44.7538 23.3661 45.3106 24.591 45.3106C25.8159 45.3106 26.6325 44.7538 26.6325 43.4546V39.2974H25.4447V43.4546C25.4447 44.0114 25.1849 44.3084 24.591 44.3084C23.9971 44.3084 23.7373 44.0114 23.7373 43.4546V39.2974H22.5495V43.4546Z" fill="black"/>
<path d="M29.8991 39.2974H28.1545V45.2363H29.3423V42.8236H29.8991L30.9384 45.2363H32.2746L31.0868 42.6009C31.755 42.3411 32.0148 42.1926 32.0148 41.0791C32.0148 39.9655 31.3467 39.2974 29.8991 39.2974ZM29.9362 41.8585H29.3052V40.2253H29.9362C30.4558 40.2253 30.7899 40.4852 30.7899 41.0419C30.7899 41.5987 30.4558 41.8585 29.9362 41.8585Z" fill="black"/>
<path d="M34.5016 39.2974H33.3138V45.2363H34.5016V39.2974Z" fill="black"/>
<path d="M35.6152 40.2996H37.0257V45.2363H38.2135V40.2996H39.624V39.2974H39.5869H35.6152V40.2996Z" fill="black"/>
<path d="M43.3359 45.2363V42.8236L45.0433 39.2974H43.7813L42.7791 41.6729H42.742L41.7026 39.2974H40.4406L42.1481 42.8236V45.2363H43.3359Z" fill="black"/>
<path d="M45.3774 47.6862H6.92261V47.946H45.3774V47.6862Z" fill="black"/>
<path d="M45.3774 26.8627H6.92261V27.1225H45.3774V26.8627Z" fill="black"/>
<path d="M12.6017 52.7713H13.8266V52.4373H12.6017V51.2495H14.3092V50.9154H12.2305V54.4417H14.4205V54.1076H12.6017V52.7713Z" fill="black"/>
<path d="M17.4642 54.4046L16.3878 52.5857L17.3528 50.9154H16.9074L16.165 52.2146L15.4227 50.9154H14.9773L15.9423 52.5857L14.903 54.4046H15.3484L16.165 52.9569L17.0188 54.4046H17.4642Z" fill="black"/>
<path d="M18.9862 51.1753C19.5429 51.1753 19.7656 51.4722 19.877 51.9547L20.2482 51.8434C20.0997 51.2124 19.9141 50.8412 19.0604 50.8412C18.2067 50.8412 17.7241 51.398 17.7241 52.66C17.7241 53.922 18.3551 54.4788 19.0604 54.4788C19.7656 54.4788 20.1368 54.0334 20.2853 53.3652H20.2482L19.9141 53.291C19.8028 53.7364 19.6172 54.1447 19.0604 54.1447C18.5036 54.1447 18.0953 53.6622 18.0953 52.66C18.0953 51.6578 18.4294 51.1753 18.9862 51.1753Z" fill="black"/>
<path d="M23.0691 51.2495V50.9154H20.9905V54.4417H23.1805V54.1076H21.3617V52.7713H22.5866V52.4373H21.3617V51.2495H23.0691Z" fill="black"/>
<path d="M23.9229 50.8784V54.4047H25.9644V54.0706H24.2941V50.8784H23.9229Z" fill="black"/>
<path d="M28.674 54.0706H27.0037V50.8784H26.6325V54.4047H28.674V54.0706Z" fill="black"/>
<path d="M31.4579 51.2495V50.9154H29.3793V54.4417H31.5693V54.1076H29.7505V52.7713H30.9754V52.4373H29.7505V51.2495H31.4579Z" fill="black"/>
<path d="M34.3532 54.4047H34.6872V50.8784H34.3532V53.5881L32.8313 50.8784H32.2745V54.4047H32.5715V51.2867L34.3532 54.4047Z" fill="black"/>
<path d="M37.6938 53.291C37.5825 53.7364 37.3969 54.1447 36.8401 54.1447C36.2833 54.1447 35.875 53.6622 35.875 52.66C35.875 51.6578 36.2091 51.1753 36.7659 51.1753C37.3227 51.1753 37.5454 51.4722 37.6567 51.9547L38.0279 51.8434C37.8794 51.2124 37.6938 50.8412 36.8401 50.8412C35.9864 50.8412 35.5038 51.398 35.5038 52.66C35.5038 53.922 36.1349 54.4788 36.8401 54.4788C37.5454 54.4788 37.9165 54.0334 38.065 53.3652H38.0279L37.6938 53.291Z" fill="black"/>
<path d="M39.1786 52.7713H40.4035V52.4373H39.1786V51.2495H40.8861V50.9154H38.8074V54.4417H40.9974V54.1076H39.1786V52.7713Z" fill="black"/>
<path d="M17.687 55.7781L16.6105 59.3043H17.0188L17.3529 58.1908H18.6149L18.949 59.3043H19.3573L18.2809 55.7781H17.687ZM17.4271 57.8938L17.9468 56.075H17.9839L18.5036 57.8938H17.4271Z" fill="black"/>
<path d="M22.3639 58.5991L21.6587 55.8152H21.3246L20.6565 58.5991L19.9884 55.8152H19.6543L20.508 59.3414H20.8421L21.5102 56.5204L22.2155 59.3414H22.5495L23.3661 55.8152H22.995L22.3639 58.5991Z" fill="black"/>
<path d="M24.7395 55.7781L23.6631 59.3043H24.0714L24.4055 58.1908H25.6675L26.0016 59.3043H26.4099L25.3334 55.7781H24.7395ZM24.5168 57.8938L25.0365 56.075H25.0736L25.5932 57.8938H24.5168Z" fill="black"/>
<path d="M29.4907 56.706C29.4907 56.1121 29.0453 55.7781 28.3029 55.7781H27.1893V59.3043H27.5976V57.7082H28.4142L29.1195 59.3043H29.5278L28.7854 57.634C29.1937 57.4855 29.4907 57.2999 29.4907 56.706ZM28.3029 57.3742H27.5976V56.1493H28.3029C28.7854 56.1493 29.1195 56.2977 29.1195 56.7432C29.1195 57.1886 28.8225 57.3742 28.3029 57.3742Z" fill="black"/>
<path d="M31.4208 55.8152H30.4928V59.3043H31.4208C32.4601 59.3043 33.0169 58.7104 33.0169 57.5598C33.0169 56.4091 32.3858 55.8152 31.4208 55.8152ZM31.3836 58.9703H30.864V56.1493H31.4208C32.126 56.1493 32.6086 56.6318 32.6086 57.5598C32.6086 58.4877 32.2003 58.9703 31.3836 58.9703Z" fill="black"/>
<path d="M34.1305 56.6689C34.1305 56.2977 34.3532 56.1121 34.7986 56.1121C35.244 56.1121 35.541 56.372 35.6152 56.706V56.7431L35.9493 56.6689C35.7637 56.1121 35.4296 55.8152 34.7986 55.8152C34.1676 55.8152 33.7593 55.5925 33.7593 56.706C33.7593 57.8196 35.7266 57.5597 35.7266 58.4506C35.7266 58.8218 35.4668 59.0816 34.9471 59.0816C34.4274 59.0816 34.1676 58.7475 34.0191 58.3764L33.6479 58.4877C33.8335 58.9331 34.0191 59.4157 34.91 59.4157C35.8008 59.4157 36.0978 59.527 36.0978 58.3764C36.0978 57.2257 34.1305 57.4484 34.1305 56.6689Z" fill="black"/>
<path d="M24.9993 4.49132C25.2963 4.49132 25.4819 4.26861 25.4819 3.52624C25.4819 2.78387 25.2963 2.56116 24.9993 2.56116C24.7024 2.56116 24.5168 2.78387 24.5168 3.52624C24.5168 4.26861 24.7024 4.49132 24.9993 4.49132Z" fill="black"/>
<path d="M37.3226 8.38879H36.7659V10.022H37.3226C37.8052 10.022 38.1021 9.76218 38.1021 9.2054C38.1021 8.64862 37.8052 8.38879 37.3226 8.38879Z" fill="black"/>
<path d="M30.0845 4.45421C30.3443 4.45421 30.4928 4.26862 30.4928 4.00879C30.4928 3.71184 30.3443 3.52625 30.0474 3.52625C29.8246 3.52625 29.6762 3.6376 29.5648 3.82319C29.5648 4.26862 29.8246 4.45421 30.0845 4.45421Z" fill="black"/>
<path d="M48.7181 3.43718H48.4731L42.5564 0H9.74361L3.82692 3.43718H3.58194C1.60723 3.43718 0 5.04441 0 7.01911V55.0022C0 56.5092 0.953946 57.8641 2.37187 58.3726L24.9399 66.4644C25.3297 66.6055 25.738 66.6723 26.15 66.6723C26.562 66.6723 26.9703 66.6018 27.3601 66.4644L49.9281 58.3726C51.3461 57.8641 52.3 56.5092 52.3 55.0022V7.01911C52.3 5.04441 50.6928 3.43718 48.7181 3.43718ZM33.982 3.4149H40.1808V3.74897H33.982V3.4149ZM31.1239 20.8606L30.3815 20.4523L29.6391 20.8606L29.7876 20.044L29.1937 19.4501L30.0103 19.3388L30.3815 18.5964L30.7527 19.3388L31.5693 19.4501L30.9754 20.044L31.1239 20.8606ZM13.3441 16.6662V16.3322H39.6611V16.6662H13.3441ZM27.4491 21.7515L26.5212 21.2689L25.5932 21.7515L25.7417 20.7121L24.9993 19.9698L26.0386 19.8213L26.5212 18.8562L26.9666 19.8213L28.043 19.9698L27.2636 20.7121L27.4491 21.7515ZM23.2176 20.8606L22.4753 20.4523L21.77 20.8606L21.8814 20.044L21.2875 19.4501L22.1412 19.3388L22.4753 18.5964L22.8465 19.3388L23.6631 19.4501L23.0692 20.044L23.2176 20.8606ZM26.9295 13.2884V7.46082H28.1544L29.7134 10.9128V7.46082H30.7156V13.2884H29.6391L27.9317 9.53946V13.2884H26.9295ZM39.4756 13.2884H38.2878L37.3227 10.9128H36.803V13.2884H35.6895V7.46082H37.2856C38.6218 7.46082 39.2528 8.09184 39.2528 9.20539C39.2528 10.319 38.993 10.4674 38.362 10.6901L39.4756 13.2884ZM31.7178 7.46082H34.7615V8.42591H32.8313V9.76217H34.3161V10.7273H32.8313V12.2491H34.8357V13.2142H31.7178V7.46082ZM30.2702 2.15287C31.0125 2.15287 30.7156 2.22711 30.9383 2.33847L30.7156 2.70965L30.6785 2.74677C30.5671 2.63542 30.4186 2.56118 30.233 2.56118C29.8619 2.56118 29.5649 2.93236 29.5649 3.37779C29.7505 3.22931 29.899 3.15507 30.1588 3.15507C30.6042 3.15507 30.9754 3.48914 30.9754 4.0088C30.9754 4.56558 30.5671 4.86253 30.0474 4.86253C29.5278 4.86253 29.1195 4.45422 29.1195 3.67473C29.1195 2.89525 29.5278 2.15287 30.2702 2.15287ZM26.5954 4.37999C26.6697 3.97168 27.8946 3.37779 27.8946 2.89525C27.8946 2.4127 27.7461 2.52406 27.4863 2.52406C27.2264 2.52406 27.078 2.70965 27.0037 2.93236L26.5954 2.85813C26.6325 2.44982 27.0408 2.15287 27.4863 2.15287C27.9317 2.15287 28.34 2.4127 28.34 2.89525C28.34 3.37779 27.7461 3.78609 27.078 4.4171H28.34V4.82541H26.5954V4.37999ZM24.9993 2.15287C25.7046 2.15287 25.9644 2.74677 25.9644 3.52626C25.9644 4.30575 25.7046 4.89965 24.9993 4.89965C24.2941 4.89965 24.0342 4.30575 24.0342 3.52626C24.0342 2.74677 24.2941 2.15287 24.9993 2.15287ZM24.9251 10.9128V7.46082H25.9273V13.2884H24.8509L23.1434 9.53946V13.2884H22.1412V7.46082H23.3661L24.9251 10.9128ZM21.5473 4.37999C21.6215 3.97168 22.8465 3.37779 22.8465 2.89525C22.8465 2.4127 22.698 2.52406 22.4381 2.52406C22.1783 2.52406 22.0298 2.70965 21.9556 2.93236L21.5473 2.85813C21.5844 2.44982 21.9927 2.15287 22.4381 2.15287C22.8836 2.15287 23.2919 2.4127 23.2919 2.89525C23.2919 3.37779 22.698 3.78609 22.0298 4.4171H23.2919V4.82541H21.5473V4.37999ZM20.0626 7.46082H21.1761V13.2884H20.0626V7.46082ZM13.1585 3.4149H19.3573V3.74897H13.1585V3.4149ZM12.9729 7.46082H14.0122L14.7917 11.2469L15.5712 7.46082H16.6477L17.4643 11.2469L18.2438 7.46082H19.2831L18.021 13.2884H16.9446L16.128 9.31675L15.2372 13.2884H14.1607L12.9358 7.46082H12.9729ZM51.5576 55.0022C51.5576 56.1974 50.8004 57.2702 49.6757 57.6748L27.1077 65.7666C26.4878 65.9893 25.8085 65.9893 25.1923 65.7666L2.62428 57.6748C1.49959 57.2702 0.74237 56.1974 0.74237 55.0022V7.01911C0.74237 5.45271 2.01554 4.17955 3.58194 4.17955H9.74361V18.5221L26.4098 24.0899L42.5564 18.5221V4.17955H48.7181C50.2845 4.17955 51.5576 5.45271 51.5576 7.01911V55.0022Z" fill="black"/>
</svg>
