<svg width="139" height="79" viewBox="0 0 139 79" fill="none" xmlns="http://www.w3.org/2000/svg">
<path d="M107.362 52.8115L106.037 56.6222H108.853L107.395 52.8115H107.362Z" fill="#222222"/>
<path d="M49.6961 18.1748C49.3565 18.1748 49.1245 18.2162 48.876 18.2494V22.0435C49.0831 22.0849 49.3647 22.1098 49.5967 22.1098C51.2784 22.1098 51.9328 21.0577 51.9328 20.1299C51.9328 19.0032 51.3032 18.1748 49.6961 18.1748Z" fill="#222222"/>
<path d="M0 0V78.1442H138.494V0H0ZM69.6198 17.5706C72.3536 17.5706 74.4909 19.7742 74.4909 22.2346C74.4909 24.695 72.569 27.0063 69.5784 27.0063C66.8446 27.0063 64.7073 24.8027 64.7073 22.3423C64.7073 19.8819 66.6292 17.5706 69.6198 17.5706ZM8.40839 60.7392C7.69595 60.7392 6.96695 60.5818 6.32079 60.3002L6.04741 58.4114H6.36221C6.59417 59.3806 7.3563 60.3333 8.49123 60.3333C9.54331 60.3333 10.3634 59.6292 10.3634 58.6102C10.3634 56.1995 6.32079 56.912 6.32079 53.8551C6.32079 52.1817 7.57998 51.3119 9.24509 51.3119C9.80012 51.3119 10.3634 51.4279 10.9102 51.5024L11.1256 53.1592H10.8108C10.6617 52.2563 10.0321 51.7261 9.05455 51.7261C8.01904 51.7261 7.41429 52.4385 7.41429 53.3829C7.41429 55.7936 11.6143 55.1309 11.6143 58.1132C11.6143 59.7948 10.0155 60.7475 8.40839 60.7475V60.7392ZM30.4607 51.8421C29.3672 51.8421 29.3838 52.3474 29.3838 53.9297V57.6658C29.3838 59.4303 28.224 60.7475 25.8216 60.7475C23.5683 60.7475 22.218 59.712 22.1766 57.5084V52.7782C22.1766 51.8669 21.6547 51.8586 20.934 51.8504V51.5107C21.5719 51.5273 22.2015 51.5356 22.8145 51.5356C23.4275 51.5356 24.0737 51.5273 24.753 51.5107V51.8504C24.0323 51.8669 23.5104 51.8752 23.5104 52.7782V57.1853C23.5104 58.7262 24.0405 60.2173 26.1696 60.2173C28.4311 60.2173 28.6548 58.5605 28.6548 57.6658V53.9711C28.6548 51.8421 28.572 51.8835 27.3625 51.8421V51.5024C27.9341 51.519 28.5057 51.5273 29.0856 51.5273C29.5495 51.5273 29.9968 51.5024 30.4607 51.5024V51.8421ZM36.2099 19.6417C36.0774 18.5399 35.4975 18.1754 34.0146 18.1754H32.3992V21.8535H34.0146C35.133 21.8535 35.2324 21.6961 35.4064 20.7766H35.7212C35.6963 21.0251 35.6632 21.721 35.6632 22.1932C35.6632 22.6074 35.688 23.2204 35.7212 23.5683H35.4478C35.2821 22.6737 35.2738 22.392 34.0726 22.392H32.4075V25.54C32.4075 26.4512 32.9294 26.4595 33.6501 26.4761V26.8157C32.9708 26.7992 32.3412 26.7909 31.7116 26.7909C31.082 26.7909 30.469 26.7992 29.7732 26.8157V26.4761C30.9578 26.4761 31.0655 26.269 31.0655 25.0098V19.2523C31.0655 18.1919 30.8501 18.134 29.7732 18.1008V17.7612C30.7424 17.7612 31.7365 17.786 32.7306 17.786C33.9732 17.786 35.2324 17.786 36.4419 17.7612L36.5247 19.5837L36.2099 19.6334V19.6417ZM46.7308 60.5487C45.571 60.5238 44.4195 60.5238 43.2597 60.5238C42.0999 60.5238 40.849 60.5238 39.6478 60.5487V60.209C40.3271 60.2505 40.8905 60.0765 40.8905 59.3392V52.7699C40.8905 51.8586 40.3686 51.8504 39.6478 51.8421V51.5024C40.2857 51.519 40.9153 51.5273 41.5283 51.5273C42.1414 51.5273 42.7875 51.519 43.4668 51.5024V51.8421C42.7461 51.8586 42.2242 51.8669 42.2242 52.7699V58.7676C42.2242 59.7286 42.4396 60.1262 44.3781 60.1262C45.9603 60.1262 46.5071 59.7617 46.9296 58.5025L47.2278 58.5522L46.7225 60.5321L46.7308 60.5487ZM55.4457 26.8074C55.106 26.8074 54.7664 26.7826 54.4267 26.7826C54.0456 26.7826 53.648 26.7909 53.2669 26.8074C52.0243 25.5151 51.1131 23.9991 50.1273 22.5328H48.8846V25.54C48.8846 26.4512 49.4065 26.4595 50.1273 26.4761V26.8157C49.4728 26.8157 48.8846 26.7909 48.2882 26.7909C47.6337 26.7909 46.9959 26.7992 46.3083 26.8157V26.4761C46.9876 26.5175 47.5509 26.3435 47.5509 25.6062V19.0369C47.5509 18.134 47.029 18.1174 46.3083 18.1008V17.7612C47.0621 17.7777 47.7166 17.786 48.3793 17.786C48.8598 17.786 49.332 17.7612 50.2101 17.7612C52.7865 17.7612 53.3663 19.1363 53.3663 20.0559C53.3663 21.1577 52.4965 21.9695 51.4279 22.2677C52.6705 23.9908 53.3249 25.0263 53.9131 25.6477C54.3522 26.1116 54.7581 26.4678 55.4539 26.4678V26.8074H55.4457ZM63.5972 60.5487C62.4375 60.5238 61.2943 60.5238 60.1345 60.5238C58.9747 60.5238 57.7155 60.5238 56.5143 60.5487V60.209C57.1936 60.2505 57.7569 60.0765 57.7569 59.3392V52.7699C57.7569 51.8586 57.235 51.8504 56.5143 51.8421V51.5024C57.1522 51.519 57.7818 51.5273 58.3948 51.5273C59.0078 51.5273 59.654 51.519 60.3333 51.5024V51.8421C59.6126 51.8586 59.0907 51.8669 59.0907 52.7699V58.7676C59.0907 59.7286 59.3061 60.1262 61.2446 60.1262C62.8268 60.1262 63.3736 59.7617 63.7961 58.5025L64.0943 58.5522L63.589 60.5321L63.5972 60.5487ZM72.8009 38.6455C72.7678 39.8715 72.6187 41.197 71.9145 42.4644C71.0695 43.9556 69.4624 45.8858 66.1902 45.8858C63.6304 45.8858 61.6753 44.0633 61.6753 41.2798C61.6753 38.9934 63.9949 35.9365 66.4138 35.9365C66.8281 35.9365 67.2588 36.0442 67.5653 36.3508C68.0292 35.7791 69.6198 34.5365 69.6198 33.7413C69.6198 33.4927 69.4541 33.0785 69.4541 32.9128C69.4541 32.4986 69.7938 32.2667 70.1748 32.2667C70.5559 32.2667 70.8044 32.5566 70.8044 33.0785C70.8044 33.8158 69.6529 34.9673 69.1476 35.4561L65.4198 39.0017L64.7156 39.7058L63.8541 40.7331C63.473 41.2052 63.1913 41.578 63.1913 42.1911C63.1913 42.6798 63.5475 43.1437 63.8541 43.4834C64.4671 44.1875 65.602 44.5603 66.5215 44.5603C68.5014 44.5603 70.1251 43.4834 70.9701 42.5059C71.9973 41.3544 72.2624 39.7721 72.337 38.2975C72.2293 37.9165 71.2601 37.5437 70.7713 37.5437C70.1417 37.5437 69.5121 38.049 69.5121 38.6952C69.5121 39.9378 70.705 39.1425 70.705 40.1532C70.705 40.6419 70.1997 40.8159 69.8021 40.8159C69.4376 40.8159 68.6671 40.4928 68.6671 39.449C68.6671 38.0076 70.4648 36.5661 71.8317 36.5661C73.7619 36.5661 74.2092 38.8194 75.3607 38.8194C75.7418 38.8194 75.9737 38.4798 75.9737 38.1318C75.9737 37.8088 75.4684 37.5602 75.4684 37.0383C75.4684 36.7318 75.7583 36.4999 76.0649 36.4999C76.5702 36.4999 76.8187 36.9886 76.8187 37.436C76.8187 38.5875 75.485 39.6644 74.3915 39.6644C73.7619 39.6644 73.1985 39.0845 72.8092 38.6537L72.8009 38.6455ZM77.0672 51.8421C76.3465 51.8504 75.8246 51.8669 75.8246 52.7699V59.2729C75.8246 60.1842 76.3465 60.1925 77.0672 60.209V60.5487C76.4128 60.5487 75.8246 60.5238 75.2282 60.5238C74.5737 60.5238 73.9358 60.5321 73.2483 60.5487V60.209C73.969 60.1925 74.4909 60.1842 74.4909 59.2729V52.7699C74.4909 51.8586 73.969 51.8504 73.2483 51.8421V51.5024C73.8944 51.519 74.5157 51.5273 75.1288 51.5273C75.7418 51.5273 76.3879 51.5107 77.0672 51.5024V51.8421ZM84.788 24.6701H85.1028C85.3348 25.6394 86.0969 26.592 87.2319 26.592C88.2839 26.592 89.1041 25.8879 89.1041 24.869C89.1041 22.4583 85.0614 23.1707 85.0614 20.1139C85.0614 18.4405 86.3206 17.5706 87.9774 17.5706C88.5407 17.5706 89.0958 17.6866 89.6425 17.7612L89.8579 19.418H89.5431C89.394 18.515 88.7644 17.9848 87.7869 17.9848C86.7514 17.9848 86.1466 18.6973 86.1466 19.6417C86.1466 22.0523 90.3467 21.3896 90.3467 24.3719C90.3467 26.0536 88.7479 27.0063 87.1407 27.0063C86.4283 27.0063 85.691 26.8489 85.0531 26.5672L84.7798 24.6784L84.788 24.6701ZM95.7397 51.8421C95.2757 51.8421 95.0189 52.0326 94.8284 52.3474C94.7456 52.4882 93.8177 54.7332 93.7929 54.7995L91.2911 60.7475H90.7857L88.5159 55.3794C88.1762 54.551 87.7786 53.706 87.4638 52.861C87.149 52.0823 86.9336 51.8421 86.0307 51.8421V51.5024C86.6768 51.519 87.3147 51.5273 87.9526 51.5273C88.5242 51.5273 89.1124 51.5024 89.684 51.5024V51.8421C89.4769 51.8504 89.2863 51.8504 89.0958 51.8835C88.9053 51.9001 88.7396 51.9995 88.7396 52.1983C88.7396 52.6291 89.4603 54.1948 89.6094 54.5676L91.4236 58.9996L92.4591 56.4315C92.7905 55.5865 93.1716 54.7581 93.4532 53.9214C93.5858 53.5072 93.8757 52.8693 93.8757 52.4468C93.8757 51.8338 93.329 51.8752 92.8402 51.8504V51.5107C93.3704 51.5273 93.9172 51.5356 94.4473 51.5356C94.8698 51.5356 95.2923 51.5273 95.7148 51.5107V51.8504L95.7397 51.8421ZM101.944 18.2914C100.718 18.2914 100.66 18.6144 100.428 19.4594H100.072L100.221 17.3967H100.495C100.644 17.7446 101.017 17.7612 101.356 17.7612H107.553C108.042 17.7612 108.39 17.6452 108.439 17.3967H108.729L108.605 19.4594H108.24C108.199 18.7553 108.24 18.2914 107.147 18.2914H105.076V25.5317C105.076 26.4429 105.598 26.4512 106.318 26.4678V26.8074C105.664 26.8074 105.076 26.7826 104.479 26.7826C103.825 26.7826 103.179 26.7909 102.5 26.8074V26.4678C103.22 26.4512 103.742 26.4429 103.742 25.5317V18.2914H101.953H101.944ZM112.515 60.5487C111.993 60.5487 111.463 60.5238 110.941 60.5238C110.27 60.5238 109.616 60.5321 108.953 60.5487V60.209H109.201C109.541 60.209 109.955 60.1428 109.955 59.7783C109.955 59.6374 109.848 59.2729 109.748 59.0244L109.069 57.1439H105.863L105.565 58.0552C105.391 58.6019 105.192 59.1984 105.192 59.596C105.192 60.209 105.639 60.1759 106.12 60.209H106.434V60.5487C105.904 60.5487 105.358 60.5238 104.827 60.5238C104.297 60.5238 103.726 60.5321 103.179 60.5487V60.209C104.007 60.1179 104.165 60.0102 104.504 59.2895C104.72 58.8256 104.885 58.3203 105.068 57.8398L106.816 53.209C106.923 52.9107 107.097 52.4302 107.097 52.0409C107.097 51.9166 107.097 51.8089 107.072 51.7012C107.362 51.5687 107.677 51.4279 107.868 51.1296H108.1L110.709 57.9558C110.9 58.4611 111.272 59.5629 111.488 59.8528C111.695 60.1096 112.101 60.2008 112.54 60.2008V60.5404L112.515 60.5487ZM132.447 51.8421C131.618 51.8421 131.163 51.9083 131.163 53.1758V60.6647H130.848L123.707 53.2255V58.0552C123.707 59.8445 123.856 60.209 125.331 60.209V60.5487C124.726 60.5487 124.113 60.5238 123.516 60.5238C122.92 60.5238 122.299 60.5321 121.702 60.5487V60.209C122.531 60.209 123.16 60.209 123.16 58.5605V53.3498C123.16 52.2314 122.655 51.8338 121.478 51.8338V51.4941C121.901 51.5107 122.307 51.519 122.738 51.519C123.102 51.519 123.491 51.4941 123.856 51.4941C124.411 52.2894 125.687 53.4658 127.244 55.0977C128.404 56.3155 129.688 57.5995 130.616 58.5605V53.3995C130.616 52.2066 130.334 51.8421 128.967 51.8338V51.4941C129.597 51.5107 130.235 51.519 130.864 51.519C131.395 51.519 131.916 51.4941 132.447 51.4941V51.8338V51.8421Z" fill="#222222"/>
<path d="M66.049 37.6591C66.1236 37.5846 66.1401 37.5349 66.1401 37.4603C66.1401 37.1704 65.7259 36.9053 65.3697 36.9053C63.8537 36.9053 62.7437 38.9183 62.7437 40.5586C62.7437 40.7905 62.7437 41.0473 62.8182 41.2793C63.3235 40.5917 63.8289 40.0035 64.3673 39.4402L66.0573 37.6591H66.049Z" fill="#222222"/>
<path d="M69.7439 26.5916C71.7403 26.5916 72.9912 24.9596 72.9912 22.6152C72.9912 20.6436 71.79 17.9844 69.4539 17.9844C67.4657 17.9844 66.2065 19.6163 66.2065 21.9608C66.2065 23.9324 67.4077 26.5833 69.7439 26.5833V26.5916Z" fill="#222222"/>
</svg>
