<svg width="202" height="44" viewBox="0 0 202 44" fill="none" xmlns="http://www.w3.org/2000/svg">
<path d="M22.2403 26.2815H23.0699C25.8265 26.2815 27.0309 26.7097 27.5305 27.0487C28.1014 27.468 28.3869 28.262 28.3869 29.4217V33.6593C28.3869 35.2026 27.4323 36.737 25.55 38.2269C23.4625 39.8773 21.0538 40.7158 18.3953 40.7158C14.8268 40.7158 11.9275 39.2171 9.52772 36.1393C6.83355 32.6779 5.4597 27.7981 5.4597 21.6426C5.4597 16.3077 6.78003 11.8204 9.37606 8.32337C11.9543 4.88876 15.0677 3.22051 18.8859 3.22051C21.8834 3.22051 24.7114 4.19291 27.3074 6.10202C28.9757 7.35098 30.8491 9.31362 32.8564 11.9275L33.24 12.4271L35.497 11.4993L31.0811 0L26.112 1.25787C25.3091 0.954556 24.3278 0.722608 23.2127 0.553107C21.7139 0.294396 20.1706 0.16058 18.6094 0.16058C13.1229 0.151658 8.59101 2.23027 5.13855 6.32505C1.73069 10.3663 0 15.6208 0 21.9191C0 28.833 1.67716 34.2837 4.98689 38.1198C8.21632 41.8845 12.7304 43.7936 18.3953 43.7936C20.6345 43.7936 22.7845 43.3922 24.7917 42.5893C25.8711 42.1611 27.1825 41.4563 28.7527 40.4839L29.5466 42.8658H33.5254V29.4217C33.5254 28.2531 33.7663 27.4323 34.2302 26.9952C34.596 26.6651 35.4256 26.2815 37.3258 26.2815H38.1555V23.1056H22.2581V26.2815H22.2403Z" fill="#222222"/>
<path d="M66.1143 39.0387C65.6682 39.4491 65.2489 39.7524 64.8743 39.9219C64.6512 40.02 64.4104 40.0646 64.1606 40.0914C64.1606 40.0914 64.107 40.029 64.0446 39.797C63.9197 39.3688 63.8573 38.7354 63.8573 37.9057V22.4633C63.8573 19.8316 63.0097 17.7619 61.3504 16.2989C59.7892 14.8983 57.666 14.1846 55.0343 14.1846C51.3767 14.1846 48.3346 14.7377 45.9616 15.8528C43.5618 17.0482 42.3485 18.5648 42.3485 20.3401C42.3485 21.3125 42.6072 22.0887 43.08 22.6061C43.6064 23.2395 44.3647 23.5606 45.346 23.5606C46.2381 23.5606 47.0142 23.1949 47.6209 22.4901C47.9688 22.053 48.281 21.4642 48.5754 20.6613C49.0126 19.3766 49.646 18.4845 50.4399 18.0117C51.3588 17.4765 52.804 17.1999 54.7488 17.1999C56.1048 17.1999 57.104 17.6013 57.8266 18.4399C58.5224 19.225 58.8704 20.3936 58.8704 21.9192V25.1843C53.3928 26.0764 49.1375 27.4413 46.2113 29.2612C43.0622 31.1882 41.4653 33.6058 41.4653 36.4338C41.4653 38.5837 42.1969 40.3501 43.6332 41.6615C45.1587 43.071 47.3622 43.7847 50.1723 43.7847C52.3491 43.7847 54.3295 43.3922 56.0691 42.6161C57.0326 42.1611 58.0229 41.5455 59.0042 40.7873C59.1112 41.3225 59.2807 41.7864 59.5127 42.1789C59.9409 42.9105 60.8419 43.7758 62.6708 43.7758C63.8126 43.7758 64.8564 43.4547 65.7485 42.8123C66.373 42.393 67.0332 41.715 67.7825 40.7337L68.1751 40.2163L66.712 38.4321L66.0697 39.0298L66.1143 39.0387ZM51.2874 39.9041C49.7976 39.9041 48.6468 39.5561 47.8796 38.8692C47.1837 38.2269 46.8447 37.3972 46.8447 36.3267C46.8447 34.2213 48.0313 32.4817 50.4667 31.0008C52.6613 29.6627 55.4893 28.7705 58.8882 28.3423V37.1028C57.7909 38.0663 56.7382 38.7532 55.748 39.1547C54.5882 39.6543 53.0895 39.9041 51.2874 39.9041Z" fill="#222222"/>
<path d="M89.2909 13.6407C87.5869 13.6407 85.6778 14.3455 83.4565 15.7818C82.2967 16.5312 80.7445 17.7534 78.6926 19.5108V13.3196L69.7358 16.7007L70.5566 18.8774H71.1275C72.7423 18.8774 73.2507 19.1361 73.4024 19.261C73.4738 19.3146 73.7236 19.5822 73.7236 20.6081V37.6831C73.7236 38.709 73.34 39.0837 73.0366 39.2889C72.5638 39.6189 71.8145 39.7884 70.7975 39.7884H69.9678V42.8573H82.3859V39.7884H81.5563C79.8702 39.7884 79.3171 39.4673 79.1565 39.3335C78.764 39.0034 78.6837 38.254 78.6837 37.6741V23.7573C80.2895 22.3834 81.4938 21.4021 82.2521 20.8401C83.2156 20.1531 84.1434 19.5911 85.0355 19.154C85.3745 18.9755 85.6511 18.922 85.9901 19.0291C85.9901 19.0291 86.1596 19.0737 86.6235 19.4841C87.0249 19.7695 87.355 19.9658 87.5691 20.0728C88.9162 20.8133 90.6469 20.5813 91.8512 19.4573C92.6006 18.7525 92.9842 17.9675 92.9842 17.111C92.9842 16.1922 92.6006 15.3625 91.8512 14.6577C91.1197 13.9708 90.2454 13.6229 89.273 13.6229L89.2909 13.6407Z" fill="#222222"/>
<path d="M110.925 37.0675C110.184 37.8793 109.444 38.5038 108.695 38.941C107.927 39.4316 107.223 39.6814 106.589 39.6814C105.608 39.6814 104.876 39.4762 104.421 39.0748C103.984 38.6912 103.779 38.1291 103.779 37.353V18.1191H111.282V14.8362H103.779V5.64746H101.023L100.987 6.43252C100.853 9.41216 100.264 11.6603 99.2383 13.1144C98.2927 14.4437 96.9902 15.1663 95.2684 15.3268L94.519 15.3982V18.1191H98.8101V36.5947C98.8101 38.8964 99.39 40.7163 100.568 42.0098C101.674 43.1517 103.164 43.7316 105.001 43.7316C106.571 43.7405 108.097 43.3301 109.453 42.4469C110.791 41.537 111.96 40.1988 112.923 38.4681L113.298 37.7991L111.425 36.5501L110.943 37.0675H110.925Z" fill="#222222"/>
<path d="M141.087 39.2166C140.623 38.8419 140.525 37.9944 140.525 37.361V23.007C140.525 20.3128 139.829 18.1628 138.464 16.6373C137.073 15.0851 135.11 14.3 132.63 14.3C130.543 14.3 128.482 14.8442 126.528 15.9147C125.636 16.3876 124.539 17.1458 123.227 18.1807V13.8896L114.44 16.6195L114.868 18.8855H115.555C117.197 18.8855 117.705 19.162 117.848 19.2869C117.973 19.394 118.267 19.7776 118.267 21.0533V37.361C118.267 38.2888 118.08 38.9401 117.714 39.2612C117.446 39.511 116.831 39.7965 115.395 39.7965H114.565V42.8653H126.983V39.7965H126.153C125.038 39.7965 124.235 39.6002 123.789 39.2166C123.325 38.8419 123.227 37.9944 123.227 37.361V22.0257C124.61 20.8303 125.886 19.9471 127.001 19.4029C128.437 18.6981 129.98 18.3413 131.586 18.3413C133.067 18.3413 134.084 18.716 134.7 19.5099C135.262 20.1879 135.547 21.312 135.547 22.8464V37.361C135.547 38.0033 135.449 38.8419 134.958 39.2434C134.539 39.6091 133.736 39.7965 132.621 39.7965H131.791V42.8653H144.21V39.7965H143.38C141.988 39.7965 141.382 39.5021 141.069 39.2166H141.087Z" fill="#222222"/>
<path d="M172.275 35.1045C170.936 36.7817 169.473 38.0396 167.912 38.8603C166.333 39.6989 164.504 40.1271 162.479 40.1271C159.723 40.1271 157.591 39.2707 155.967 37.5132C154.218 35.6041 153.273 32.6869 153.157 28.8419H174.246V28.0123C174.246 23.7212 173.069 20.2955 170.758 17.8155C168.465 15.4068 165.343 14.1846 161.462 14.1846C157.582 14.1846 154.093 15.6298 151.542 18.4935C149.133 21.2411 147.911 24.7382 147.911 28.8776C147.911 33.2757 149.169 36.8977 151.667 39.6632C154.209 42.402 157.599 43.7847 161.739 43.7847C164.781 43.7847 167.439 43.08 169.625 41.6972C171.383 40.591 173.006 38.9406 174.442 36.7817L174.844 36.175L172.828 34.4265L172.292 35.1045H172.275ZM153.21 25.6036C153.478 23.3198 154.352 21.3571 155.797 19.7602C157.385 18.0385 159.223 17.1999 161.391 17.1999C163.701 17.1999 165.432 17.8868 166.699 19.3142C167.894 20.688 168.626 22.8023 168.876 25.6036H153.21Z" fill="#222222"/>
<path d="M200.189 14.6845C199.458 13.9976 198.583 13.6407 197.611 13.6407C195.907 13.6407 193.998 14.3455 191.777 15.7818C190.626 16.5312 189.065 17.7444 187.022 19.5108V13.3196L178.065 16.7007L178.886 18.8774H179.457C181.071 18.8774 181.58 19.1361 181.732 19.261C181.803 19.3146 182.053 19.5822 182.053 20.6081V37.6831C182.053 38.709 181.669 39.0837 181.375 39.2889C180.902 39.6189 180.152 39.7884 179.135 39.7884H178.306V42.8573H190.724V39.7884H189.894C188.208 39.7884 187.655 39.4673 187.495 39.3335C187.102 39.0034 187.022 38.254 187.022 37.6741V23.7573C188.628 22.3834 189.832 21.4021 190.59 20.8401C191.563 20.1531 192.49 19.5911 193.382 19.154C193.713 18.9755 193.989 18.922 194.337 19.0291C194.337 19.0291 194.506 19.0737 194.97 19.4841C195.381 19.7695 195.702 19.9747 195.916 20.0728C197.263 20.8133 199.003 20.5813 200.198 19.4573C200.948 18.7525 201.331 17.9675 201.331 17.111C201.331 16.1832 200.948 15.3625 200.198 14.6577L200.189 14.6845Z" fill="#222222"/>
</svg>
