<svg width="117" height="109" viewBox="0 0 117 109" fill="none" xmlns="http://www.w3.org/2000/svg">
<path d="M25.0456 103.924C25.093 103.669 25.3846 103.687 25.5815 103.4C26.6434 101.865 25.6164 99.9031 23.8168 99.6713C22.6378 99.5193 21.1821 99.7835 19.9707 99.6713V108.672H24.7989C24.8662 108.672 25.5641 108.341 25.6912 108.256C27.4186 107.134 27.1917 104.258 25.0456 103.924ZM23.408 101.715C23.6747 101.992 23.8392 102.411 23.6572 102.78C23.3507 103.161 22.907 103.32 22.4259 103.273V101.635L23.408 101.715ZM24.1857 106.506L22.4259 106.872V105.07C23.4703 104.926 24.8163 105.217 24.1857 106.506Z" fill="#222222"/>
<path d="M43.4909 101.271C43.1793 100.508 41.9704 99.6709 41.1628 99.6709H37.2345L36.9902 99.9152V108.672H39.4454V105.725C39.8268 105.633 39.7146 105.8 39.8193 105.932C40.4948 106.792 40.8862 107.872 41.6539 108.672H44.5179L41.9031 105.152C43.5109 104.454 44.1739 102.949 43.4909 101.271ZM40.6543 103.579C39.0965 104.467 39.4504 102.63 39.4454 101.635C40.8463 101.186 42.0178 102.804 40.6543 103.579Z" fill="#222222"/>
<path d="M80.1271 99.823L79.9302 99.6933L77.814 99.823C77.495 100.282 77.9461 104.713 77.7068 105.773C77.4002 107.144 75.0971 107.246 74.8354 105.77C74.6509 104.736 75.0024 100.222 74.7257 99.823L72.3428 99.6709V106.137C72.3428 106.448 72.941 107.635 73.1853 107.911C74.6036 109.517 78.7537 109.37 79.7408 107.316C80.6356 105.456 80.0524 101.889 80.1247 99.823H80.1271Z" fill="#222222"/>
<path d="M49.3411 102.623C49.1043 102.371 49.0071 101.885 49.3037 101.671C49.7673 101.337 51.1133 101.633 51.4748 102.114C52.1553 100.978 53.065 100.282 51.3925 99.7538C48.703 98.9014 46.173 100.06 46.6566 103.181C46.9582 105.13 49.7574 104.901 50.1662 105.726C50.3631 106.125 50.3107 106.551 49.882 106.753C48.6133 107.346 47.4019 106.015 47.2224 106.055C46.5644 107.212 45.6296 107.925 47.3047 108.59C49.6552 109.522 52.9329 108.809 52.8781 105.813C52.8283 103.037 50.3531 103.697 49.3386 102.628L49.3411 102.623Z" fill="#222222"/>
<path d="M34.1259 99.6714H29.38L29.1357 99.9157V108.672H34.3727V106.708H31.753V105.235H34.2082L34.1359 103.261L31.7505 103.109V101.798H34.3702C34.2755 101.12 34.617 100.19 34.1259 99.6689V99.6714Z" fill="#222222"/>
<path d="M60.3134 99.672H55.5675L55.3232 99.9163V108.673H60.5602V106.709H58.0227C57.6414 106.382 57.6414 105.562 58.0227 105.235H60.3957C60.3009 104.557 60.6424 103.628 60.1514 103.107H57.7784L57.8034 102.067L58.0227 101.796H60.5602C60.4655 101.118 60.8069 100.188 60.3159 99.667L60.3134 99.672Z" fill="#222222"/>
<path d="M66.8763 99.5268C64.6878 99.7736 62.8383 102.004 62.8408 104.173C62.8433 107.693 66.8689 110.34 69.8874 108.266V105.893C68.8405 106.122 68.3694 106.895 67.1829 106.558C64.1943 105.711 65.3932 101.339 68.1276 101.837C68.7981 101.96 69.2568 102.598 69.8874 102.62V100.247C69.8874 99.5542 67.4397 99.467 66.8763 99.5293V99.5268Z" fill="#222222"/>
<path d="M1.59776 101.514C-1.12415 105.621 3.29522 110.714 7.69464 108.428V105.891C7.1363 105.973 6.86461 106.372 6.28633 106.531C3.23041 107.374 2.05141 102.655 5.07244 101.878C6.25891 101.573 6.70259 102.236 7.69714 102.618V100.08C5.77285 98.839 2.84156 99.6392 1.60025 101.514H1.59776Z" fill="#222222"/>
<path d="M15.3045 99.6709L13.5049 101.962L11.8672 99.6709H9.32978C9.31233 100.107 9.63388 100.508 9.85323 100.867C10.1773 101.401 12.4405 104.277 12.4405 104.499V108.672H14.8957V104.335C14.8957 104.09 17.3185 100.992 17.655 100.384C17.7847 100.147 17.8844 99.9526 17.842 99.6709H15.3045Z" fill="#222222"/>
<path d="M111.05 99.6709L109.25 101.962L107.613 99.6709H105.075L105.16 100.321C105.526 100.837 108.021 104.063 108.021 104.335V108.672H110.477V104.499C110.477 104.247 113.079 101.047 113.395 100.381C113.508 100.142 113.642 99.965 113.587 99.6709H111.05Z" fill="#222222"/>
<path d="M97.2211 99.6709L97.1289 101.645L98.7491 101.825L99.0208 102.044V108.672H101.476V101.797L103.368 101.645L103.276 99.6709H97.2211Z" fill="#222222"/>
<path d="M92.6372 99.6713V108.672H95.0924V99.9156C94.4767 99.4071 93.4124 99.7785 92.6372 99.6713Z" fill="#222222"/>
<path d="M66.9437 73.0878L66.1236 72.9931V69.0648C65.7846 69.1271 65.0992 68.9501 64.8474 69.0997C64.6555 69.2118 62.5218 72.6267 62.4495 72.8361C62.3025 73.2573 62.2277 73.8356 62.6066 74.1397H64.9795V75.2863H66.1261V74.1397H66.9437V73.0878ZM63.6684 72.9931L64.8948 70.8669L64.977 72.9956H63.6684V72.9931Z" fill="#222222"/>
<path d="M55.5424 75.0972C57.2847 74.0379 57.1701 68.7835 54.2986 68.943C50.6594 69.1449 51.8135 77.3655 55.5424 75.0972ZM53.7253 70.2541C53.977 70.0173 54.5154 69.9899 54.827 70.1295C55.9362 70.6305 55.8515 75.1845 53.8474 74.2198C53.0074 73.816 53.0697 70.8723 53.7253 70.2541Z" fill="#222222"/>
<path d="M61.6669 70.6619C61.5448 68.3563 57.3597 68.3613 57.6139 70.8638C58.9973 71.1455 58.5736 70.5423 59.0148 70.2208C59.7227 69.7023 60.5602 70.1609 60.3982 71.1006C60.2162 72.155 56.8711 73.6929 57.4519 75.2807H61.7068V74.2986H58.925C59.7127 73.152 61.7566 72.2971 61.6694 70.6595L61.6669 70.6619Z" fill="#222222"/>
<path d="M47.2199 73.9731C47.0379 74.347 47.175 74.8754 47.1401 75.2842H51.2329V74.3021H48.6132C49.5679 72.8764 51.5495 72.323 51.223 70.3015C51.0036 68.943 49.0893 68.7013 48.0624 69.2496C47.2248 69.6958 46.6914 71.3609 48.1795 70.8399C48.5783 70.7003 48.4288 69.9825 49.351 70.0323C50.4079 70.0896 50.1611 71.0468 49.6825 71.6874C49.2812 72.2233 47.3245 73.7637 47.2224 73.9731H47.2199Z" fill="#222222"/>
<path d="M99.4295 64.8102C99.3548 64.3889 100.08 63.7782 100.399 63.3246C101.334 61.9886 102.057 60.3385 103.388 59.4386C103.737 59.2043 104.951 58.8978 104.734 59.4735C104.447 60.2338 103.562 60.8295 102.787 60.9666C105.803 62.8984 108.356 59.7926 109.587 57.2925C109.694 57.0732 110.29 55.787 110.297 55.7022C110.362 55.0367 108.084 55.1065 107.615 55.1589C105.868 55.3508 104.604 57.2452 103.577 58.4865C103.458 58.631 103.253 59.0149 103.281 58.5164C104.19 56.7566 105.033 54.942 105.571 53.0302L105.873 53.1723C106.259 52.3597 106.982 51.1931 108.027 51.6418C107.757 52.6737 107.124 53.8403 105.898 53.6857C106.005 53.8951 106.773 54.1394 106.97 54.1643C110.945 54.6703 112.508 49.5929 113.091 46.5494C113.081 45.9687 111.656 46.1083 111.229 46.1681C109.687 46.3849 108.378 47.6611 107.628 48.9498L106.062 52.0456C106.504 49.8197 107.184 47.6312 107.488 45.3729C109.323 31.8282 104.906 17.8373 94.6064 8.75425L91.3311 6.38379C92.54 7.61264 93.9882 8.57229 95.2395 9.75627C103.802 17.8547 108.024 30.4423 107.042 42.14C107.022 42.3644 106.965 43.1271 106.718 43.2044C106.882 39.7422 105.018 35.931 101.012 36.8458C101.11 40.1883 101.999 44.5304 105.898 45.1685L105.053 43.8051C105.005 43.4836 104.634 42.3619 105.163 42.3843C106.202 42.4292 106.491 43.6132 106.391 44.5155L106.715 43.8624C106.99 44.5304 106.406 44.6974 106.409 44.7498C106.419 44.9567 106.603 45.2084 106.568 45.5773C106.396 47.4368 105.626 49.391 105.242 51.2231C104.933 51.2555 105.11 50.8816 105.128 50.6996C105.27 49.224 105.489 48.6681 104.998 47.1327C104.447 45.4128 102.937 44.331 101.167 44.2014C100.753 46.3126 100.489 49.0395 101.668 50.9514C101.977 51.4524 103.156 52.6987 103.689 52.8582C104.265 53.0302 103.495 52.0805 103.448 51.7864C103.363 51.233 103.537 50.7694 103.605 50.241C104.639 50.1562 104.701 51.6667 104.654 52.3921C104.577 53.601 103.47 55.8443 102.897 56.9809C102.802 57.1704 102.687 57.5941 102.458 57.6041C103.293 55.0118 102.77 51.6618 99.6813 51.228C98.764 54.1718 97.9739 57.5293 100.738 59.7303C100.761 58.8554 100.379 57.8459 101.065 57.1155C101.192 57.2776 101.478 57.4346 101.551 57.6066C102.244 59.2268 99.6838 62.2752 98.6917 63.4966C99.1379 62.2279 99.5965 61.0862 99.3074 59.6879C99.1927 59.1296 97.8044 57.1305 97.2111 57.5144C95.728 59.8748 94.4095 62.9557 96.6453 65.2962C96.7949 64.9847 96.5631 64.718 96.6254 64.3117C96.7002 63.8306 97.1164 63.4717 97.2186 63.0055C97.3059 62.9457 97.6349 63.3171 97.6748 63.4517C98.1508 65.0121 95.4314 67.1258 94.4344 68.0805C94.8158 67.0959 95.4863 66.2185 95.404 65.0769C95.3591 64.4438 94.6263 62.2852 93.7763 62.7538C93.542 62.8834 92.3057 64.6681 92.1138 65.027C91.5654 66.044 91.199 66.9164 91.3959 68.0929C91.4458 68.3846 91.9144 70.0297 92.3032 69.7181C91.8944 69.0052 92.3481 68.2599 92.879 67.7564C93.1208 67.7066 93.2629 67.9533 93.2928 68.1702C93.4747 69.4165 90.3191 71.3134 89.342 71.9166C88.1207 72.6693 86.1814 73.3897 85.1769 74.135C84.975 74.2845 84.5861 74.7681 84.631 75.0173C85.0971 75.8598 86.1565 75.299 86.8444 74.9874C89.0678 73.9804 90.8999 72.2257 92.899 71.0566C93.5121 70.6977 95.0276 69.8153 95.409 70.7824C94.736 71.428 93.9708 71.4754 93.1183 71.1962C94.6936 73.6414 97.5501 72.5821 99.4146 71.0267C100.511 70.1119 101.626 69.2171 99.6663 68.4942C98.0162 67.886 96.7924 68.5865 95.3292 69.2345C94.9927 68.898 95.5137 68.8856 95.7405 68.6687C96.5905 67.8586 98.8388 65.1043 100.05 65.4857C100.202 65.533 100.359 65.6975 100.319 65.872C99.7361 66.545 99.1155 66.9314 98.1932 66.7768C100.945 69.6558 104.761 65.9518 105.978 63.3346C103.719 61.4975 101.142 63.0504 99.4196 64.8102H99.4295Z" fill="#222222"/>
<path d="M110.083 37.6558C108.986 38.9644 107.88 42.5637 107.852 44.2662C107.84 45.0563 108.48 43.3439 108.563 43.2542C108.789 43.0099 109.298 42.9177 109.577 42.7183C110.29 42.7756 109.156 45.667 108.184 45.4128C110.17 46.3475 112.314 44.3584 113.072 42.6111C113.284 42.1225 113.912 40.1235 113.912 39.6873V35.8412C112.516 35.8063 110.973 36.589 110.081 37.6558H110.083Z" fill="#222222"/>
<path d="M108.512 36.3296C111.374 36.372 112.531 33.4831 112.61 31.0204C112.633 30.3598 112.364 26.6334 111.855 26.5212C109.674 27.0621 108.273 29.3902 108.021 31.5014C107.879 32.6954 108.126 34.1261 108.021 35.3475C108.605 35.4397 108.211 34.6446 108.53 34.1361C108.662 33.9242 109.148 33.6152 109.412 33.5454C109.587 34.2383 109.584 35.2952 109.101 35.851C108.904 36.0778 108.537 36.0654 108.515 36.3271L108.512 36.3296Z" fill="#222222"/>
<path d="M106.145 34.5275L106.878 35.6766C106.561 32.6057 105.14 29.0887 101.411 29.637C100.649 29.7492 100.422 29.8314 100.566 30.6091C100.958 32.7253 102.374 35.4149 104.462 36.21C104.961 36.3994 106.17 36.9254 106.389 36.3321C105.594 36.3147 105.071 35.1232 105.073 34.4502C105.076 33.8969 105.913 34.3156 106.147 34.525L106.145 34.5275Z" fill="#222222"/>
<path d="M106.551 27.329L106.915 25.9755L107.451 25.3698C108.146 26.1974 107.904 27.2567 107.206 27.9846C111.247 26.8878 110.15 21.3842 108.582 18.6672C105.145 20.2151 105.793 24.303 106.556 27.329H106.551Z" fill="#222222"/>
<path d="M98.8789 23.7545C99.6441 26.4789 101.992 29.622 105.24 28.6375L104.188 27.9744L103.625 27.0597L103.859 26.6783C104.746 26.6459 104.958 27.5806 105.567 27.9844C104.779 24.9061 102.294 21.728 98.8789 23.7545Z" fill="#222222"/>
<path d="M103.989 19.4171C104.014 19.0682 104.108 18.4226 104.582 18.4924C104.913 19.295 105.14 19.9979 104.582 20.7806C107.92 19.3075 106.23 14.3746 104.338 12.3132C101.451 14.2151 102.892 17.6449 103.764 20.292C104.378 20.4117 103.961 19.7536 103.986 19.4171H103.989Z" fill="#222222"/>
<path d="M102.947 21.1098C101.962 18.51 98.8188 16.01 96.4185 18.5973C97.5501 20.6537 100.073 23.3282 102.618 21.8476C102.052 21.5011 101.506 21.2868 101.219 20.6262C101.653 19.6791 102.473 20.7633 102.947 21.1123V21.1098Z" fill="#222222"/>
<path d="M100.494 12.9295C100.932 12.6029 101.653 14.5023 100.982 14.8911C102.662 14.3079 102.503 11.7505 101.947 10.4094C101.745 9.92339 100.035 7.25631 99.5988 7.36349C97.5873 9.56944 98.9183 12.6852 100.656 14.5646C100.553 13.9514 100.175 13.575 100.496 12.9295H100.494Z" fill="#222222"/>
<path d="M99.3474 15.2172C99.6116 14.9504 97.7746 13.5322 97.5004 13.3826C96.6903 12.9489 95.8428 12.7669 94.9256 13.0037C94.5891 13.091 93.5621 13.6867 93.4749 14.0232C93.3203 14.6214 95.7357 16.3214 96.3114 16.5357C97.4979 16.9769 98.5996 16.8174 99.6739 16.1967C99.5917 15.8802 99.0458 16.1095 98.6969 15.95C98.4825 15.8528 98.2532 15.454 98.0413 15.2969C97.807 14.7311 99.3001 15.267 99.3474 15.2172Z" fill="#222222"/>
<path d="M96.5631 9.8188C96.603 9.68919 96.1294 8.25844 96.6453 8.51019L97.3832 10.1453C98.7815 8.15624 97.4704 5.8481 95.8502 4.48216C95.6259 4.29272 95.3791 4.12572 95.1448 3.94625C94.6014 3.79171 94.3472 4.75884 94.2923 5.16762C94.0456 6.98473 95.2395 8.69963 96.5681 9.8188H96.5631Z" fill="#222222"/>
<path d="M95.7478 10.963C94.5987 9.49731 92.2731 8.42799 90.6928 9.91607C89.7431 10.8084 90.6504 11.1075 91.4431 11.5861C93.0034 12.5308 94.2821 12.8972 95.9123 11.778L95.83 11.454C95.329 11.4889 94.4641 11.4789 94.4417 10.8009C95.01 10.5068 95.2268 10.8832 95.7503 10.963H95.7478Z" fill="#222222"/>
<path d="M90.8377 6.05157C89.7734 3.72598 87.4029 2.05096 84.7832 2.61927C85.7653 4.94984 88.385 6.0765 90.8377 6.05157Z" fill="#222222"/>
<path d="M92.6374 6.37857L92.3906 5.23447L93.2904 6.54059C94.0133 5.2245 93.435 3.87102 92.4804 2.85155C92.2161 2.5674 90.7106 1.31113 90.3417 1.53546C89.4768 2.85903 90.2993 4.36456 91.2615 5.37655C91.4534 5.57845 92.5028 6.47828 92.6349 6.37359L92.6374 6.37857Z" fill="#222222"/>
<path d="M91.6552 7.20132C89.9303 6.35384 88.0608 5.72819 86.9292 7.77212C88.1655 8.90874 90.7553 9.74376 91.9817 8.26067L90.6731 7.85188C90.8002 7.25615 91.7898 7.84441 91.6552 7.20132Z" fill="#222222"/>
<path d="M29.2756 75.0173C29.3205 74.7681 28.9341 74.287 28.7297 74.135C27.7028 73.3722 25.7187 72.627 24.4674 71.8518C23.4978 71.2511 20.4369 69.404 20.6163 68.1702C20.6487 67.9533 20.7883 67.7066 21.0301 67.7564C21.561 68.2599 22.0122 69.0052 21.6059 69.7181C22.1268 70.1344 22.6254 67.6418 22.593 67.1856C22.5456 66.545 22.1069 65.6003 21.7978 65.027C21.6059 64.6706 20.3696 62.8834 20.1353 62.7538C19.2853 62.2852 18.5525 64.4438 18.5076 65.0769C18.4253 66.2185 19.0959 67.0959 19.4772 68.0805C18.4951 67.1507 15.5938 64.8675 16.2917 63.3371C16.339 63.2349 16.6307 62.9632 16.6955 63.0055C16.8126 63.5041 17.2738 63.9104 17.3186 64.4363C17.3461 64.7479 17.0769 65.0719 17.2688 65.2962C19.5021 62.9557 18.1861 59.8749 16.703 57.5144C16.1097 57.1305 14.7214 59.1296 14.6067 59.6879C14.32 61.0863 14.7762 62.2279 15.2224 63.4966C14.2303 62.2752 11.6704 59.2268 12.3634 57.6066C12.4356 57.4346 12.7248 57.2776 12.8494 57.1155C13.5349 57.8459 13.1535 58.8554 13.1759 59.7303C15.9402 57.5293 15.1526 54.1718 14.2328 51.228C11.1445 51.6618 10.621 55.0118 11.4561 57.6041C11.2267 57.5941 11.1146 57.1729 11.0174 56.9809C10.4441 55.8418 9.33735 53.601 9.26008 52.3921C9.21272 51.6642 9.27504 50.1562 10.3095 50.241C10.3768 50.7694 10.5512 51.233 10.4665 51.7864C10.4216 52.0805 9.64892 53.0302 10.2247 52.8582C10.7581 52.6987 11.9371 51.4524 12.2462 50.9514C13.4252 49.0395 13.1635 46.3126 12.7472 44.2014C10.9775 44.331 9.46697 45.4128 8.9161 47.1327C8.42506 48.6681 8.64441 49.224 8.78649 50.6996C8.80394 50.8791 8.98091 51.2555 8.67183 51.2231C8.28797 49.391 7.51776 47.4368 7.34577 45.5773C7.31087 45.2084 7.49533 44.9542 7.5053 44.7498C7.5053 44.6974 6.92452 44.5304 7.19871 43.8624L7.52274 44.5155C7.42055 43.6132 7.70969 42.4292 8.75159 42.3843C9.28002 42.3619 8.90863 43.4836 8.86127 43.8051L8.01628 45.1685C11.9147 44.5304 12.8045 40.1883 12.9018 36.8458C8.89367 35.931 7.0317 39.7422 7.19621 43.2044C6.95194 43.1271 6.89212 42.3644 6.87218 42.14C5.8876 30.4423 10.1126 17.8522 18.6746 9.75627C19.9259 8.57229 21.3741 7.61015 22.583 6.38379L19.3077 8.75425C9.01331 17.8348 4.59395 31.8257 6.43099 45.3704C6.73758 47.6287 7.41556 49.8172 7.85675 52.0431L6.2914 48.9473C5.21709 47.038 3.34516 45.8316 1.09185 46.1756L0.827637 46.547C1.4109 49.5879 2.97376 54.6653 6.94945 54.1618C7.14636 54.1369 7.91408 53.8926 8.02126 53.6832C6.79491 53.8378 6.16179 52.6713 5.89259 51.6393C6.93698 51.1907 7.65984 52.3572 8.04619 53.1698L8.34779 53.0277C8.88619 54.9395 9.72869 56.7541 10.6385 58.5139C10.6634 59.0099 10.4615 58.6286 10.3419 58.484C9.31492 57.2427 8.05367 55.3483 6.30387 55.1564C5.83526 55.104 3.55703 55.0342 3.62183 55.6998C3.62931 55.787 4.22504 57.0732 4.33222 57.29C5.56357 59.7901 8.11598 62.8959 11.132 60.9641C10.3568 60.8295 9.47195 60.2338 9.1853 59.471C8.96845 58.8953 10.1823 59.2018 10.5313 59.4362C11.8623 60.3335 12.5852 61.9861 13.5199 63.3221C13.839 63.7758 14.5643 64.3864 14.4895 64.8077C12.7871 63.0529 10.0602 61.4203 7.89165 63.4143C9.36976 65.9992 12.7472 69.5461 15.7134 66.8516C14.7887 66.8242 14.183 66.5949 13.5872 65.867C13.6396 65.3386 14.183 65.4084 14.5768 65.5355C16.1895 66.049 17.189 68.1652 18.6597 68.9005L18.5774 69.2271C17.1167 68.579 15.8929 67.8786 14.2403 68.4868C12.2811 69.2096 13.3953 70.1045 14.492 71.0192C16.3565 72.5771 19.2155 73.6315 20.7883 71.1887C19.9359 71.4679 19.1706 71.4205 18.4976 70.775C18.879 69.8078 20.397 70.6902 21.0077 71.0491C22.9818 72.2032 24.7615 73.9007 26.955 74.9226C27.6405 75.2417 28.7621 75.8873 29.2756 75.0099V75.0173Z" fill="#222222"/>
<path d="M5.73047 45.4145C4.75836 45.6662 3.62423 42.7773 4.33711 42.72C4.61878 42.9194 5.12727 43.0116 5.3516 43.2559C5.43385 43.3456 6.07445 45.058 6.06199 44.2679C6.03457 42.563 4.93035 38.9661 3.83112 37.6575C2.93877 36.5907 1.39336 35.808 0 35.8429V39.689C0 40.1277 0.628134 42.1267 0.840004 42.6128C1.59775 44.3601 3.74138 46.3517 5.72798 45.4145H5.73047Z" fill="#222222"/>
<path d="M5.40132 36.3293C5.37888 36.0676 5.01496 36.08 4.81556 35.8532C4.33199 35.2949 4.3295 34.2405 4.50398 33.5476C4.7682 33.6199 5.25176 33.9289 5.38636 34.1383C5.70541 34.6443 5.31158 35.4419 5.89485 35.3497V31.5036C5.89485 31.3042 5.39135 29.6217 5.27419 29.3426C4.75573 28.1187 3.38481 26.8225 2.06124 26.5234C1.55275 26.6331 1.28355 30.3595 1.30598 31.0226C1.38575 33.4853 2.54231 36.3742 5.40381 36.3318L5.40132 36.3293Z" fill="#222222"/>
<path d="M7.5326 36.3346C7.92643 36.9901 9.94293 36.1053 10.4664 35.7488C11.7177 34.8988 13.2008 31.9476 13.3927 30.4795C13.4824 29.7965 13.131 29.7292 12.5078 29.637C8.80631 29.0886 7.40049 32.5408 7.03906 35.5918L7.36559 35.5694C7.33568 34.6994 7.98376 34.1162 8.84121 34.2009C8.8786 35.0085 8.46233 36.2399 7.5326 36.3296V36.3346Z" fill="#222222"/>
<path d="M6.71252 27.9846C6.01211 27.2567 5.77282 26.1974 6.46825 25.3698L7.00416 25.9755L7.36808 27.329C8.13081 24.3005 8.77888 20.2151 5.3416 18.6672C3.77625 21.3767 2.66954 26.8803 6.71751 27.9846H6.71252Z" fill="#222222"/>
<path d="M9.1954 25.8039C8.88134 26.3722 8.44015 27.4116 8.43018 27.9849C8.84644 27.6085 9.16549 26.8009 9.77368 26.7037C10.7956 26.5367 9.92075 27.8678 9.57926 28.1544C9.24276 28.4386 8.82401 28.3439 8.67694 28.6405C11.9298 29.6251 14.2728 26.4769 15.038 23.7575C12.5654 22.3068 10.4666 23.5032 9.1954 25.8064V25.8039Z" fill="#222222"/>
<path d="M9.33233 20.7837C8.77648 19.9986 9.0033 19.2982 9.33233 18.4955C9.80592 18.4282 9.90064 19.0738 9.92556 19.4203C9.95049 19.7568 9.53423 20.4148 10.1474 20.2952C11.0198 17.6481 12.4605 14.2183 9.57411 12.3164C7.68223 14.3778 5.99225 19.3106 9.32983 20.7837H9.33233Z" fill="#222222"/>
<path d="M17.4983 18.5973C15.1004 16.01 11.9548 18.51 10.9702 21.1098C11.4438 20.7608 12.2664 19.6791 12.6976 20.6238C12.4109 21.2843 11.8651 21.4987 11.2992 21.8451C13.8442 23.3257 16.3667 20.6537 17.4983 18.5948V18.5973Z" fill="#222222"/>
<path d="M12.9315 14.8911C12.261 14.4948 12.9839 12.6054 13.4201 12.9295C13.7391 13.575 13.3628 13.9514 13.2606 14.5646C15.0054 12.6727 16.324 9.56944 14.3174 7.36349C13.8787 7.25631 12.1688 9.92339 11.9694 10.4094C11.4086 11.7629 11.2615 14.3153 12.934 14.8911H12.9315Z" fill="#222222"/>
<path d="M19.9582 13.5127C18.2981 12.2415 15.6659 13.2884 14.6465 14.8911C14.5742 15.0058 14.462 15.1703 14.6515 15.2226C14.8135 15.1404 16.0772 14.8163 15.8753 15.2999C15.6635 15.4594 15.4341 15.8558 15.2198 15.953C14.8683 16.1125 14.3249 15.8807 14.2427 16.1997C16.2093 17.4061 18.0987 16.5936 19.6441 15.1404C20.3047 14.5172 20.8829 14.2181 19.9582 13.5127Z" fill="#222222"/>
<path d="M16.6954 10.1446C16.6556 9.6062 16.8251 8.5967 17.5155 8.50946L17.3535 9.81807C18.9562 8.48453 20.6038 5.89473 19.0509 3.93555C17.6401 4.44653 15.8854 6.75218 15.8804 8.26269C15.8804 8.82103 16.2343 9.79065 16.6954 10.1446Z" fill="#222222"/>
<path d="M23.5229 10.9174C23.63 10.8003 23.7073 10.6308 23.645 10.4737C22.2541 8.28274 19.5023 9.25236 18.1688 10.9648C20.0257 10.1721 19.8089 11.6079 18.0865 11.4558C17.5705 11.5057 18.8094 12.2883 19.1384 12.3681C19.8562 12.5426 20.6339 12.4778 21.3169 12.231C21.6085 12.1263 23.3459 11.1093 23.5204 10.9174H23.5229Z" fill="#222222"/>
<path d="M29.1361 2.61974C26.5163 2.05392 24.1459 3.72645 23.0815 6.05204C25.5343 6.07697 28.154 4.94783 29.1361 2.61974Z" fill="#222222"/>
<path d="M21.6058 5.23414L21.2793 6.37824C21.3989 6.50038 22.5305 5.51082 22.6527 5.38121C23.4877 4.49633 24.0884 3.48933 23.8865 2.21561C23.737 1.2759 23.3481 1.41549 22.6975 1.82427C21.1895 2.77146 19.6117 4.7107 20.6262 6.54026L21.6033 5.23165L21.6058 5.23414Z" fill="#222222"/>
<path d="M26.9875 7.77434C25.8534 5.72792 23.9815 6.35854 22.2616 7.20353C22.1245 7.84662 23.1141 7.25837 23.2437 7.8541L21.9351 8.0211C22.6779 9.90301 25.8459 8.8985 26.99 7.77683L26.9875 7.77434Z" fill="#222222"/>
<path d="M56.9581 62.3247C73.5463 62.3247 86.9939 48.8772 86.9939 32.289C86.9939 15.7008 73.5463 2.25073 56.9581 2.25073C40.3699 2.25073 26.9224 15.6983 26.9224 32.2865C26.9224 48.8747 40.3699 62.3222 56.9581 62.3222V62.3247ZM56.9581 3.26023C72.988 3.26023 85.9844 16.2566 85.9844 32.2865C85.9844 48.3164 72.988 61.3127 56.9581 61.3127C40.9282 61.3127 27.9319 48.3164 27.9319 32.2865C27.9319 16.2566 40.9282 3.26023 56.9581 3.26023Z" fill="#222222"/>
<path d="M34.1138 32.2841C34.1138 44.9016 44.3409 55.1287 56.9584 55.1287C69.5759 55.1287 79.803 44.9016 79.803 32.2841C79.803 19.6666 69.5759 9.43945 56.9584 9.43945C44.3409 9.43945 34.1138 19.6666 34.1138 32.2841ZM56.9584 10.2645C69.1222 10.2645 78.9829 20.1252 78.9829 32.2891C78.9829 44.4529 69.1222 54.3136 56.9584 54.3136C44.7945 54.3136 34.9338 44.4529 34.9338 32.2891C34.9338 20.1252 44.7945 10.2645 56.9584 10.2645Z" fill="#222222"/>
<path d="M68.7434 55.4802C69.1721 54.4931 69.5111 53.7977 68.6636 52.8679C68.3171 53.0748 68.0031 53.2667 67.7862 53.6232C67.2079 54.5778 67.7887 55.5524 66.0688 55.6571L65.2263 54.5006C64.653 54.8745 65.3435 55.535 65.0693 55.9737C64.9646 56.2878 63.6635 56.375 63.8355 56.7065C64 57.0181 64.8051 57.038 65.1266 57.1327C65.2812 57.3147 64.9048 58.3342 65.3884 58.5859L66.0688 57.5989L67.5968 57.7709L66.8266 56.5445L67.5145 55.4826C68.19 57.1552 69.1721 57.4119 70.8696 56.9533C70.8048 55.9812 69.6681 55.373 68.7434 55.4802Z" fill="#222222"/>
<path d="M65.6301 7.8544C65.9417 8.26319 65.6002 10.4741 66.0414 10.4691L68.5739 7.44562C67.7937 6.57321 67.1107 8.68693 66.6122 8.92123L66.2857 8.75672V6.38377C65.7298 6.22425 64.491 8.55731 64.1595 8.18343L64.3091 5.99991L63.6685 5.73071V9.65904C64.1495 9.76871 65.3859 7.67743 65.6301 7.85939V7.8544Z" fill="#222222"/>
<path d="M34.2086 25.3674C33.1517 25.0359 32.5086 25.2652 31.7559 26.0204C31.8705 25.0982 29.9338 23.3359 29.7792 24.7891C29.4876 27.5135 33.8098 28.0743 34.2111 25.3674H34.2086Z" fill="#222222"/>
<path d="M42.8103 51.7066C42.7853 51.6343 42.2544 50.7868 42.2071 50.7594C41.4244 50.3132 40.866 52.6637 41.5739 53.1896C41.0031 53.0376 40.5071 53.1622 39.9363 53.1896C39.7319 53.4215 39.0813 53.9075 39.1187 54.087C40.6816 56.0511 43.4409 53.6184 42.8103 51.7066Z" fill="#222222"/>
<path d="M40.4897 49.4326C39.5649 49.7791 39.4702 50.8858 39.7718 51.7133C38.7972 51.6186 38.0369 51.7308 37.3315 52.4487C37.9547 53.5728 38.9542 53.2388 39.9363 53.189C40.9907 51.99 42.0151 50.8783 40.4897 49.4326Z" fill="#222222"/>
<path d="M48.9671 56.1083C48.7826 55.8017 49.1864 54.9666 48.6929 54.665L47.8479 55.6272L46.4819 55.3156C46.5891 55.7992 47.0827 56.3401 47.0827 56.542C47.0827 56.9333 46.2352 57.4119 46.3199 57.9328L47.8404 57.5963C48.0797 57.6512 48.2567 58.708 48.7726 58.5859L48.8524 57.2748C49.0967 56.866 50.1436 57.1377 50.0837 56.4597L48.9671 56.1033V56.1083Z" fill="#222222"/>
<path d="M45.2558 52.8679C45.0613 52.8804 44.7049 53.8699 44.6949 54.1042C44.6675 54.695 45.0863 54.9742 45.176 55.4802C44.2487 55.373 43.1146 55.9812 43.0498 56.9533C44.6999 57.4244 45.9661 57.1228 46.3425 55.3331L46.4871 55.3181C46.2702 54.3385 46.5195 53.4163 45.2582 52.8679H45.2558Z" fill="#222222"/>
<path d="M82.1606 26.0205C81.4427 25.3176 80.7049 24.9611 79.7129 25.3724C80.0768 28.209 84.6432 27.3515 84.1273 24.6296C83.898 23.4207 82.0011 25.2129 82.1606 26.018V26.0205Z" fill="#222222"/>
<path d="M81.5999 42.5606C81.0889 42.6428 80.917 42.9619 80.5281 43.2062C80.6777 42.1991 79.9025 41.561 79.1323 41.085C78.4169 41.7605 78.7634 42.5805 79.0525 43.3682L78.0729 43.0416C77.0011 45.7361 80.7001 47.7402 82.1433 45.0856C81.5625 44.3378 80.3088 44.6469 79.546 45.0033L79.2195 43.5302C80.2913 44.6519 82.6693 44.6793 83.1254 42.932C83.2475 42.4609 81.8243 42.5207 81.5999 42.5581V42.5606Z" fill="#222222"/>
<path d="M82.49 38.5423C82.2233 38.7442 82.2657 39.0832 82.0015 39.1131C81.8843 38.0164 81.2687 37.6251 80.2866 37.3135C79.0478 39.5992 83.0908 41.4188 84.2174 39.1206C84.9253 37.6774 83.1979 38.0064 82.4925 38.5398L82.49 38.5423Z" fill="#222222"/>
<path d="M30.108 39.6949C31.5587 41.0234 34.4352 39.468 33.8046 37.4715C33.6126 37.1599 32.6006 37.7207 32.4162 37.8927C32.0323 38.2491 32.157 38.8698 31.7581 39.1116C31.7407 38.3738 30.0906 37.8977 29.622 38.2068C29.2456 38.5707 29.8039 39.4132 30.1105 39.6949H30.108Z" fill="#222222"/>
<path d="M34.7841 41.085C34.0139 41.5586 33.2387 42.1991 33.3882 43.2062C32.633 42.426 31.773 42.3986 30.771 42.7176C31.7481 45.0507 32.9396 44.4898 34.6993 43.5327C34.9885 42.6802 35.6764 41.9723 34.7841 41.085Z" fill="#222222"/>
<path d="M35.8435 43.0419C35.6366 42.8998 34.9537 43.3959 34.6994 43.533C34.5349 44.0165 34.2956 44.4752 34.3704 45.0061C33.6301 44.6621 32.3564 44.3256 31.7881 45.0859C33.1715 47.7579 36.9378 45.7215 35.8435 43.0419Z" fill="#222222"/>
<path d="M83.6442 29.2203C83.1058 29.5892 83.0858 30.0603 82.6571 30.4392C82.535 29.4796 80.2418 28.6196 80.5932 30.1227C80.9347 31.5733 82.9786 31.7354 84.0779 31.1272C85.0874 30.5688 85.5734 27.9042 83.6442 29.2203Z" fill="#222222"/>
<path d="M34.607 24.2104C35.4595 22.9317 32.9993 23.1062 32.411 23.8939C32.3039 22.9865 31.7181 22.2438 30.8582 21.9297C29.2529 24.3251 33.2112 26.3092 34.607 24.2104Z" fill="#222222"/>
<path d="M81.346 41.0782C81.3161 40.0986 80.486 39.3359 79.5463 39.2786C78.7637 42.1027 82.9138 43.6531 83.9607 40.6694C83.1581 40.0612 82.0539 40.5174 81.3485 41.0807L81.346 41.0782Z" fill="#222222"/>
<path d="M72.3423 53.1871C72.8857 52.3969 72.7661 51.4124 72.0831 50.7444C71.6345 50.6073 71.0936 51.5993 71.0387 51.9732C70.7546 53.905 73.2746 55.8866 74.7951 54.0894C74.1694 53.2843 73.3419 52.9204 72.3423 53.1871Z" fill="#222222"/>
<path d="M29.8389 31.1279C30.9207 31.7261 32.9895 31.5467 33.3235 30.1234C33.6775 28.6204 31.3818 29.4828 31.2597 30.44C30.8284 30.0611 30.811 29.5875 30.2726 29.2211C28.3433 27.905 28.8294 30.5721 29.8389 31.1279Z" fill="#222222"/>
<path d="M44.266 52.5413C43.1518 50.7566 42.6807 53.3414 43.2091 54.3335C42.5685 54.1216 40.3501 55.1436 41.3621 55.7717C43.4235 57.0529 45.3228 54.2363 44.266 52.5413Z" fill="#222222"/>
<path d="M34.3705 39.2786C33.4307 39.3384 32.5982 40.0986 32.5683 41.0807C31.8903 40.3653 29.2731 39.8419 30.2776 41.3275C31.7532 43.5085 35.0709 41.6814 34.3705 39.2786Z" fill="#222222"/>
<path d="M74.1448 51.7158C74.4764 50.8484 74.2769 50.0259 73.5541 49.4326C71.216 51.0852 74.1324 54.6521 76.4081 52.8375C76.9565 51.9676 74.763 51.499 74.1448 51.7158Z" fill="#222222"/>
<path d="M81.5052 23.8939C80.9169 23.1062 78.4592 22.9317 79.3092 24.2104C80.6901 26.2892 84.5736 24.4098 83.0581 21.9297C82.1981 22.2438 81.6124 22.9865 81.5052 23.8939Z" fill="#222222"/>
<path d="M70.7076 54.3335C71.1762 53.3015 70.7724 50.7441 69.6507 52.5413C68.5041 54.3783 70.8172 57.1999 72.6667 55.7193C73.4045 55.1261 71.2709 54.0892 70.7076 54.3335Z" fill="#222222"/>
<path d="M37.728 46.3174C36.8307 46.9754 36.7235 47.6983 36.8257 48.7701C35.8959 48.142 35.016 48.2491 34.2109 49.0144C36.043 51.7388 39.7669 48.633 37.728 46.3174Z" fill="#222222"/>
<path d="M36.8257 44.6797C35.8037 44.8367 35.38 46.0456 35.5171 46.9704C34.5849 46.2799 31.7483 46.599 33.5654 47.8602C35.547 49.2337 38.0047 46.7311 36.8257 44.6797Z" fill="#222222"/>
<path d="M77.0909 48.7701C77.1931 47.7008 77.0859 46.9754 76.1886 46.3174C74.1496 48.633 77.8736 51.7388 79.7031 49.0144C78.8581 48.304 78.0256 48.1145 77.0884 48.7701H77.0909Z" fill="#222222"/>
<path d="M75.6177 50.408C75.9692 49.7425 75.7174 48.0724 74.8799 47.9478C74.5459 47.8979 74.6506 48.0799 74.5509 48.2718C73.2473 50.752 76.4228 53.0825 78.2324 50.8168C77.5844 50.0964 76.4702 49.887 75.6177 50.408Z" fill="#222222"/>
<path d="M78.3995 46.9705C78.4743 46.2875 78.3497 45.5622 77.8487 45.0636C77.7265 44.944 77.2081 44.5925 77.0909 44.6798C75.6801 47.2671 79.4838 49.837 81.0093 47.0502C80.3313 46.4046 79.1523 46.5168 78.3995 46.9705Z" fill="#222222"/>
<path d="M82.6519 28.1491C81.8767 27.3016 81.3483 27.2144 80.1992 27.3315C80.4759 30.2603 85.3738 29.6496 84.6186 26.5114C83.6041 26.4716 82.8264 27.1471 82.6544 28.1491H82.6519Z" fill="#222222"/>
<path d="M83.8684 33.7025L82.6545 34.8591C82.6695 33.7898 81.6077 33.386 80.6904 33.386C80.1146 35.4823 83.3325 36.5466 84.5738 35.3053C85.2593 34.6198 85.4114 32.9224 83.8684 33.7025Z" fill="#222222"/>
<path d="M33.2262 33.386C32.3065 33.386 31.2446 33.7898 31.2621 34.8591L30.0482 33.7025C28.2112 32.9622 28.8468 34.9663 29.5073 35.4025C30.6015 36.1278 31.3144 35.7191 32.4087 35.5147C32.9745 34.7893 33.4207 34.4603 33.2262 33.386Z" fill="#222222"/>
<path d="M31.4241 36.9848C31.1599 36.9623 31.1798 36.5959 30.9455 36.4015C30.5018 36.0376 29.8338 35.6911 29.2381 35.8606L29.0337 36.1771C29.5048 39.1209 33.9915 38.256 33.3883 35.3496C33.0667 35.4643 32.7153 35.4543 32.4062 35.5116C32.0547 35.9653 31.4789 36.2818 31.4216 36.9823L31.4241 36.9848Z" fill="#222222"/>
<path d="M39.2734 47.9605C38.1443 47.9929 37.9573 49.5333 38.2988 50.4057C37.4463 49.8848 36.3346 50.0942 35.6841 50.8145C37.718 53.2249 40.7889 50.4431 39.2734 47.958V47.9605Z" fill="#222222"/>
<path d="M35.6817 21.853C35.2679 21.3669 34.4479 21.327 33.8721 21.514C33.5655 21.6137 33.4184 21.9801 33.0645 21.9302C33.2913 20.9681 32.6681 20.2278 31.8556 19.8115C31.1452 20.2851 31.3197 21.5588 31.7534 22.177C32.6632 23.4731 35.0635 23.4457 35.6817 21.853Z" fill="#222222"/>
<path d="M79.7778 21.4465C79.2245 21.3618 78.7609 21.5363 78.2324 21.6036C78.9104 24.3055 83.2974 23.0518 82.4524 20.2451C82.0885 19.0337 80.3736 21.1125 80.8496 21.9276C80.4085 21.8977 80.2614 21.5188 79.7753 21.444L79.7778 21.4465Z" fill="#222222"/>
<path d="M33.2262 31.4217C32.1295 31.2596 31.5537 31.6684 31.0153 32.5683C30.9654 32.5932 30.5242 31.7382 30.3946 31.636C30.1653 31.4516 28.9514 31.1126 28.8068 31.2596C28.4379 34.3505 33.4979 34.4227 33.2262 31.4217Z" fill="#222222"/>
<path d="M82.9785 32.5676C82.3354 31.7575 81.8244 31.2764 80.6878 31.421C80.4161 34.4221 85.4761 34.3473 85.1072 31.259C84.0977 31.2066 83.2627 31.5556 82.9785 32.5676Z" fill="#222222"/>
<path d="M33.7172 27.3313C32.6453 27.259 32.0022 27.2166 31.3442 28.1463C30.9105 27.1942 30.4793 26.4688 29.3003 26.5137C28.5525 29.6145 33.3782 30.2975 33.7172 27.3338V27.3313Z" fill="#222222"/>
<path d="M82.5723 36.8204C82.4152 36.8154 82.1112 36.0352 81.9491 35.8906C81.7921 35.7486 80.5932 35.275 80.5259 35.3497C79.8803 38.4804 84.9726 39.1136 84.7807 35.8383C83.8609 35.7137 83.1456 36.1449 82.5698 36.8179L82.5723 36.8204Z" fill="#222222"/>
<path d="M57.6066 57.3725L57.1206 56.1362C56.6943 55.7474 56.5149 57.3725 56.4526 57.4274L54.9969 57.4448C54.8922 57.9732 56.0562 58.2026 56.1011 58.5017L55.6499 59.8975C56.2856 60.0047 56.47 59.2519 57.0383 59.1348L58.2672 59.8975L57.973 58.5291C58.1849 57.9558 59.0748 57.9359 58.9227 57.2803L57.6066 57.37V57.3725Z" fill="#222222"/>
<path d="M61.9634 56.9257L61.0511 55.6445L60.7271 57.0404L59.4135 57.2822C59.2839 57.853 60.4354 57.9701 60.5327 58.1247L60.5601 59.7349L61.6468 58.7777L63.0128 59.2413L62.5292 58.0125L63.3393 56.6241L61.9634 56.9232V56.9257Z" fill="#222222"/>
<path d="M53.2318 57.0807L52.8654 55.6475L51.9531 56.9287L50.5771 56.6295L51.5343 57.8808L50.9037 59.2468L52.2696 58.7831L53.5184 59.7403L53.3838 58.1301C53.481 57.9731 54.6301 57.8559 54.5005 57.2876L53.2293 57.0857L53.2318 57.0807Z" fill="#222222"/>
<path d="M40.9983 14.2477C43.4386 14.0757 43.2715 10.2122 40.7141 10.3493C38.1194 10.4889 38.3911 14.4296 40.9983 14.2477ZM40.8139 10.9051C41.5716 10.9051 42.1848 11.5183 42.1848 12.276C42.1848 13.0338 41.5716 13.647 40.8139 13.647C40.0561 13.647 39.4429 13.0338 39.4429 12.276C39.4429 11.5183 40.0561 10.9051 40.8139 10.9051Z" fill="#222222"/>
<path d="M35.5744 20.0733C37.4015 20.0185 38.224 17.0224 36.1926 16.7133L35.5196 17.9173C36.0505 18.67 36.1626 17.4212 36.5814 17.5135C37.1746 17.6406 36.8207 19.3031 35.7539 19.4751C33.9567 19.7618 33.336 16.9302 35.4099 16.6984L35.5221 16.2048C32.8251 16.0827 32.9322 20.1556 35.5769 20.0758L35.5744 20.0733Z" fill="#222222"/>
<path d="M74.2371 15.3145C74.0426 15.5164 73.6937 15.4964 73.8931 15.8778C73.9928 16.0697 74.915 16.8549 75.1319 16.9297C77.5722 17.7672 78.7761 14.4296 76.5128 13.293C75.77 13.9859 74.94 14.5841 74.2371 15.3145ZM76.5153 14.0831C77.2631 14.5218 77.3752 15.5886 76.7147 16.1545C76.0691 16.7078 75.087 16.4785 74.6359 15.793L76.5128 14.0831H76.5153Z" fill="#222222"/>
<path d="M44.5975 11.9246C45.7242 11.5133 46.9356 10.4988 45.5821 9.48432C45.4126 9.35719 45.0786 9.35221 45.0362 9.30236C44.8866 9.12289 45.2705 8.29784 44.1912 8.08597C43.7949 8.0087 43.2341 8.40752 42.8676 8.61191C42.7804 9.02568 44.4081 11.9071 44.595 11.9246H44.5975ZM43.8597 9.57903L43.5381 8.83873C44.7894 8.26295 44.7072 10.105 43.8597 9.57903ZM45.3453 10.0526C46.103 10.5885 44.4355 12.0766 44.3607 10.1523C44.6523 10.09 45.0661 9.85322 45.3453 10.0526Z" fill="#222222"/>
<path d="M72.5045 12.9265C72.6042 13.4973 72.173 14.6912 72.9956 14.7261L73.1601 13.0885C75.0993 13.1907 75.2414 11.5705 73.7134 10.6458L71.3804 13.3602L71.7667 13.744L72.5045 12.9265ZM73.7334 11.4583L74.0674 12.2734L73.7085 12.5675L73.1601 12.4354C73.0728 11.9643 73.4368 11.74 73.7334 11.4583Z" fill="#222222"/>
<path d="M52.7011 8.99614V8.34557L51.2304 8.6721L51.0684 7.53298C51.1606 7.40586 52.5665 7.36349 52.372 6.95719C51.7289 6.26425 50.884 7.54046 50.7419 6.29416C50.6995 5.93025 50.7743 6.1147 50.9762 6.05238C51.4672 5.90283 52.1726 6.00502 52.043 5.2373L50.0913 5.83054L50.9911 9.3102L52.6961 8.99614H52.7011Z" fill="#222222"/>
<path d="M77.3228 19.4848C77.0212 19.0636 77.6718 18.5077 77.1683 18.1662C75.7475 18.9589 77.2755 20.9829 78.5592 20.0432C79.5313 19.3303 78.6215 18.3033 78.9056 17.8547L79.3044 17.7251C79.8304 18.0067 79.8603 18.2759 79.7107 18.8193C81.301 18.7071 79.7681 16.5261 78.6339 17.3362C77.8089 17.9245 78.7511 19.2131 78.2476 19.5671C78.0507 19.7067 77.4774 19.6992 77.3253 19.4848H77.3228Z" fill="#222222"/>
<path d="M49.4255 9.81097L49.4304 9.3274L47.9598 9.65393L47.6432 8.60455L48.6652 8.1858L48.7724 7.69226L47.4064 7.83933L47.1572 7.59007L47.1447 7.04419C47.4389 7.0741 48.4309 6.73511 48.4434 6.46341C48.4633 5.99231 46.6113 6.62294 46.4991 6.98187C46.3272 7.53024 47.4613 9.55423 47.6208 10.2397L49.423 9.81097H49.4255Z" fill="#222222"/>
<path d="M38.7326 16.6806C39.0043 16.728 40.0212 15.6387 39.7745 15.3845C39.3034 15.2 39.0217 15.9154 38.7326 15.863C38.5182 15.8232 37.0202 14.1706 36.6662 13.9886C36.4444 13.874 36.2101 13.9786 36.1727 14.1581C36.0979 14.5245 38.4011 16.2818 38.7301 16.6806H38.7326Z" fill="#222222"/>
<path d="M53.1944 22.2562H54.012L53.845 22.827L54.5006 22.9143C54.4407 23.3081 53.8998 22.7547 53.9995 23.495C54.0444 23.829 54.7897 23.9686 54.5006 24.7139L53.1745 24.8111C53.2318 25.5789 52.6112 26.9273 53.4836 27.199L53.521 27.5679C53.516 27.9368 53.0499 28.0839 52.9452 28.3182C52.6486 28.9812 52.6162 29.1732 52.2348 29.8985C51.492 31.3043 51.7437 31.1074 51.7313 32.4908C51.7263 32.932 51.487 33.2909 51.5792 33.7595C51.6665 34.1957 52.0703 34.3902 52.2772 34.7117C52.5837 35.1878 52.6535 35.7611 53.3589 36.0951C53.8575 36.3294 55.034 36.0278 55.5375 35.8309C55.6571 36.2796 56.1955 36.2895 56.3127 36.4416C56.5594 36.7656 56.3825 37.4685 56.4946 37.8574C56.5594 38.0792 56.8685 38.2562 56.9857 38.5129C57.5914 39.824 56.9084 40.4646 57.1527 41.6212C57.3122 42.3739 57.9179 43.5878 58.1846 44.3531C58.2793 44.6223 58.2644 44.8989 58.2619 45.1756C59.6428 45.552 60.6249 44.1512 61.1159 43.0395C61.2555 42.7254 61.1583 42.3715 61.2904 42.0674C61.4474 41.7109 62.1279 41.5364 62.27 41.2473C62.6812 40.4098 62.1852 39.3579 62.4245 38.6176C62.6663 37.8723 63.8278 37.1046 64.2267 36.4914C64.4485 36.1499 65.1414 34.6519 64.8049 34.3702C64.4236 34.5771 63.9375 34.8687 63.4988 34.617C64.2616 34.2057 66.8563 32.7451 66.5896 31.7032C66.4775 31.262 65.8369 31.4414 65.9565 30.9354C66.3603 31.2894 67.1031 31.0277 67.4172 31.1772C67.5792 31.2545 68.4042 32.4036 68.4815 32.583C68.7607 33.2411 68.9102 36.4565 69.6356 36.4839C70.3908 36.5139 69.8724 35.3972 69.8799 34.951C69.8948 34.0786 70.7921 32.5207 71.6845 32.2416L71.8739 33.7745L72.3376 33.8792C72.4622 34.9111 72.0285 35.8284 72.3376 36.8254L72.0958 36.4939L71.682 36.5911C71.515 38.4855 71.8465 39.8265 73.5888 40.7413L74.9548 39.9337L75.2863 41.0778C75.6926 41.5065 75.7275 40.0359 75.8097 39.9561C75.8945 39.8789 76.1811 40.0209 76.2709 39.8265C76.3955 39.5523 76.398 38.7996 76.4279 38.4606L75.7773 38.9516L75.2838 37.4785L74.3042 37.805C74.1621 37.658 74.7579 36.7257 74.8277 36.6834C74.9598 36.6036 75.391 37.0697 75.5754 36.2147C75.7948 35.1928 75.386 33.9614 75.6103 32.8971C75.1891 32.8273 75.3137 32.9594 75.2364 33.2511C74.9174 34.4425 74.9772 35.3149 74.207 36.4839C73.7409 37.1869 72.7588 37.5159 72.9931 38.6251C72.5195 38.3035 72.856 37.3364 72.8386 36.7357C72.8261 36.3419 72.2977 34.9635 72.9956 35.0258L73.0779 36.0054C73.2449 35.7586 73.696 35.5019 73.8231 35.2775C74.2045 34.612 73.8007 33.5402 73.8954 33.3782C73.9478 33.2884 74.2269 33.261 74.3142 33.109C74.4313 32.9071 74.4189 32.598 74.556 32.4086C74.7429 32.1493 75.1492 32.1269 75.1243 31.7505L75.6103 32.2391C75.4483 31.8726 76.0989 31.3916 76.0989 31.3392C76.0989 31.2645 75.6452 31.0426 75.6103 30.6812C75.5829 30.3871 75.7948 29.8362 75.7873 29.3726C75.7773 28.6173 75.376 28.0116 75.5231 27.3262L75.9369 27.1666C75.9842 27.543 75.8621 28.0091 75.9394 28.3606C75.9543 28.4229 76.6846 28.8915 76.4304 29.4548L77.3776 27.5256C77.0386 26.3142 77.572 24.7189 76.8367 23.7269C76.5525 24.5095 76.9663 25.2997 76.9214 26.0923C76.904 26.4189 76.7395 27.3187 76.4279 27.4882C76.4927 26.9573 76.1437 26.4238 76.1313 25.9378C76.1138 25.18 76.6522 24.1855 76.6797 23.6471C76.7494 22.331 74.1646 18.8788 73.2374 17.8319C71.2259 15.5611 68.4292 13.42 65.5627 12.4204L65.296 13.0885L64.9021 12.919L64.8049 13.2505L64.3961 13.086L64.4809 14.8881C62.4993 14.7236 62.8034 12.9688 63.6633 11.7026C63.262 11.1467 62.6015 11.8895 62.4818 12.3158C62.4046 12.5875 62.3098 13.9035 62.3547 14.1503C62.5093 14.9778 63.5312 14.604 63.6608 15.3816C63.1972 15.3243 62.7336 15.6708 62.4345 15.2221L62.3522 15.7082L61.6992 15.5462L61.6169 16.1992C61.3128 15.6434 60.7221 15.5935 60.3357 15.3443C59.6478 14.9006 59.6851 14.2749 58.4987 14.8831C58.232 15.0202 57.2997 15.8129 57.1975 16.0422C57.0854 16.2914 57.3022 16.7775 56.9882 17.3009C56.7464 17.7047 55.9836 18.116 55.8416 18.6071C55.6945 19.118 55.7169 20.3344 56.4622 20.1275C56.1806 20.9526 56.5071 21.481 55.5599 21.9098C55.3829 21.9098 54.8769 20.9177 54.8346 20.6884C54.7722 20.3643 55.0165 19.3449 54.5828 19.472C53.9846 19.6465 53.3191 21.2692 53.2243 21.8798C53.2044 22.0045 53.172 22.1241 53.1894 22.2512L53.1944 22.2562ZM72.9133 38.8345C73.2523 39.0164 73.4443 39.1585 73.8132 38.9516L73.6536 39.7692C74.1721 39.6022 74.3939 39.3579 74.3092 38.7871L74.9623 39.1136C75.2639 39.3903 74.1372 39.8838 73.878 39.9237C73.3396 40.011 73.028 39.4501 72.5095 39.1934L72.9133 38.832V38.8345ZM64.3264 24.1406L64.6504 24.3799L64.1594 24.6366L64.9769 27.3287L64.3986 26.9996C64.7052 25.9652 64.0447 25.5539 63.8278 24.6142L64.3264 24.1406ZM60.4728 24.5444L62.0282 24.9607C62.3348 25.1825 62.589 25.4443 62.5217 25.8555C61.6543 25.5988 61.1483 25.4567 60.231 25.691L60.4728 24.5419V24.5444ZM58.2669 19.3922C58.2918 18.9859 57.8007 18.3952 58.4289 18.1659C58.4737 18.5173 58.3292 18.9411 58.4837 19.2701C58.5061 19.3175 58.7554 19.31 58.7604 19.4047C58.7853 19.7611 58.3591 20.6161 58.4064 21.0872L57.4493 21.2716C58.0724 20.8429 58.222 20.1275 58.2669 19.3897V19.3922ZM55.6471 26.2643L55.1561 26.02C55.4926 25.3196 55.4851 25.1701 56.3027 25.0404C56.2304 25.5664 55.874 26.2269 56.385 26.6731L56.6317 25.5315L57.6113 26.4338L56.9558 26.6781C56.8286 27.1916 57.3321 27.2265 57.5315 27.6577L58.1048 26.4637L58.4289 26.3491C58.3715 27.0769 59.0271 27.3611 59.2789 27.9568L60.8691 27.6751L61.0511 28.3132L61.5396 27.9867C61.6717 29.9783 58.7878 27.9568 58.4513 28.5002L58.3491 29.1308C57.8506 28.7818 57.6512 28.3207 56.9907 28.2783L56.8087 27.0819C55.9812 26.8376 55.2633 27.042 54.503 27.3287C54.7124 26.708 55.1835 26.6208 55.6471 26.2643Z" fill="#222222"/>
<path d="M35.3523 30.8386C35.3897 31.215 35.4819 31.9503 36.0079 31.9129L35.6788 30.8536L36.0054 30.7688C36.3194 31.726 36.6958 32.7853 37.4934 33.4558C38.2886 34.1239 39.5573 34.1214 40.3774 34.7445C40.7139 34.9988 40.9906 35.926 41.8281 36.1628C42.182 36.2625 41.9178 35.6767 42.3889 35.8413C42.9298 36.8358 42.172 37.4764 42.0923 38.0846C42.0624 38.3189 42.1995 38.5183 42.2044 38.7227C42.2094 38.9445 42.0748 39.1888 42.1022 39.3409C42.1197 39.4381 43.0619 40.814 43.2115 40.9934C43.7972 41.6939 44.5624 41.9456 44.9239 42.8828C45.3975 44.1117 45.0684 45.5923 45.1731 46.8884C45.228 47.5614 45.4348 48.1597 45.5345 48.8127C45.7165 49.9992 47.2146 51.4 48.1169 50.2484L47.3068 49.8147L47.6358 48.8601C47.0426 48.8127 47.419 47.7384 47.6981 47.4542C47.8876 47.2598 48.3013 47.215 48.4459 47.0554C48.6528 46.8286 48.583 46.4796 48.7625 46.2254C49.0466 45.8241 49.8143 45.7717 49.9165 44.9093C49.9564 44.5853 49.7321 44.1241 49.8966 43.9347C50.1832 43.6057 50.754 43.663 51.0556 43.4437C51.619 43.0349 51.2899 41.9307 51.3971 41.3299C51.4769 40.8937 52.0053 40.5099 52.0377 40.0039C52.0776 39.4082 51.4769 38.5432 50.9086 38.3662C50.4275 38.2167 49.0666 38.1344 48.6702 37.8204C48.4559 37.6509 48.4484 37.1399 48.2066 36.8109C47.748 36.1802 47.2495 36.447 46.736 36.1478C46.3646 35.931 45.9608 35.0237 45.891 35.0087C45.5321 34.9339 45.1058 35.2056 44.7668 35.1832C44.5275 35.1658 44.3655 34.9788 44.1811 34.9364C43.8496 34.8592 43.7598 35.1832 43.6128 34.6897C42.9298 34.9165 42.4288 36.0382 41.5564 35.4424C41.1625 35.1732 41.8754 33.4309 40.2577 33.7126L40.3475 32.5635L39.8514 32.4065L39.5847 33.0371C38.3783 33.406 38.2961 31.8706 38.4631 31.0181C38.65 30.0784 39.7418 30.5021 39.9337 30.3675C40.0583 30.2803 40.0508 29.9388 40.1879 29.9388C41.3719 29.9363 40.8933 31.2374 41.7309 31.4219C41.8231 30.4722 41.2797 29.7942 41.9676 28.9542C42.1222 28.7648 42.4587 28.7 42.5659 28.523C42.683 28.3286 42.5584 28.032 42.6332 27.8251C42.8874 27.1321 43.2563 27 43.6078 26.5015C43.7349 26.322 43.6103 26.0279 43.7997 25.8435C44.2658 25.3873 45.9035 26.0578 45.8212 24.7143L45.0186 24.6994L44.9961 24.1435L46.9778 22.6654C46.9553 22.2292 45.9184 21.8129 45.8586 21.7307C45.7938 21.6409 45.4448 20.3847 45.3302 20.2949L44.3506 20.948C44.9189 20.0681 43.209 19.4923 42.6531 19.6519C42.4512 19.7092 42.3017 20.7262 42.2992 20.9306C42.2942 21.3144 42.7503 21.7008 42.3017 22.0971C41.8555 21.2521 41.9876 21.8777 41.9577 22.2766C41.9377 22.5458 41.9851 23.311 41.7309 23.4032C41.7259 22.2217 40.6541 21.8204 39.6296 21.7407C39.0413 20.5966 39.7816 20.0681 40.5244 19.3328L41.7309 19.9659L41.5688 19.4774L42.2244 19.3926C41.3071 18.2386 41.9303 18.5676 42.1621 18.099C42.2194 17.9818 42.1571 17.5332 42.2244 17.3487C42.3341 17.244 42.9946 17.8472 42.8799 17.1867C43.2638 17.1767 42.8575 17.7575 42.8799 17.9195L43.5305 18.2485L42.5733 18.6822L42.5509 19.3129C43.7997 18.7022 43.3535 19.2456 43.9717 19.6095C44.6721 20.0233 45.0709 19.7815 45.4299 19.1608L45.1706 18.6598C47.394 17.8846 45.3002 17.6304 45.1906 17.4933C45.0983 17.3786 45.2554 16.9374 45.0959 16.6882C44.9588 16.4738 43.6626 16.1547 43.4183 15.7285H43.1591C42.6531 16.1448 42.0649 16.5062 41.6411 17.0122C40.9432 17.8422 41.3694 17.3263 40.659 17.8248C38.1515 19.5871 35.0457 27.8051 35.3498 30.8386H35.3523Z" fill="#222222"/>
<path d="M46.3173 14.1606C47.0078 14.4722 46.6638 15.2723 46.9579 15.6462L47.793 15.8755C47.4241 16.3167 47.1648 16.5909 47.3069 17.229C48.0547 18.0814 48.1893 19.0361 49.6001 18.7544C49.7646 18.6348 49.9565 17.1517 50.2382 16.7654C50.8613 15.9154 53.0399 14.9308 53.496 14.1307C53.5808 13.9836 53.683 13.849 53.6855 13.6671L52.8654 13.3355C53.7204 13.3331 54.0195 12.5703 53.7029 11.85L54.0095 11.7777V11.5359C53.6855 11.3116 53.4437 11.2767 53.5135 10.8105C50.48 11.2866 47.5238 12.3909 45.0112 14.1531C45.4823 14.2653 45.7565 13.9063 46.3173 14.1556V14.1606Z" fill="#222222"/>
<path d="M74.6355 43.0422C74.132 42.115 75.1191 41.7112 74.4436 40.9385C74.0049 41.1179 73.2297 41.0955 72.8808 41.2027C72.3723 41.3572 72.123 41.8383 71.7342 42.0252C71.268 42.2471 70.7321 42.1374 70.3782 42.3069C69.6927 42.6384 69.6354 44.1115 69.4908 44.6923C69.4086 45.0263 68.9923 45.4575 69.0696 45.7392C69.2042 46.2427 71.1459 45.6146 71.5372 45.8962C71.6968 46.5742 72.0083 47.2771 71.8538 47.9526C72.138 48.0274 72.1803 47.8355 72.3448 47.7084C73.0777 47.145 75.4232 44.1639 75.6774 43.3339C75.8295 42.8328 75.6027 42.2396 75.9466 41.7361C75.2063 41.7511 75.2612 42.8104 74.6405 43.0422H74.6355Z" fill="#222222"/>
<path d="M58.9227 13.4202V12.7647C59.1271 12.7996 59.1944 13.3629 59.5757 13.0912C59.8998 12.8594 59.3215 12.0668 59.4162 11.9471C59.9272 12.503 60.5104 12.1864 59.7328 11.8549L59.9072 11.1295C59.0822 10.8205 58.6958 11.1819 58.0203 11.6156C57.6639 12.1839 58.4067 12.822 58.4441 13.4128L58.9252 13.4227L58.9227 13.4202Z" fill="#222222"/>
<path d="M63.7506 40.2627C62.7984 41.1874 62.1852 41.9327 62.3597 43.3685C62.5367 43.356 62.7436 43.4059 62.9131 43.3485C63.0776 43.2912 64.5158 40.5867 63.7506 40.2627Z" fill="#222222"/>
<path d="M52.7558 17.9772C53.4886 17.9074 54.1616 16.5016 53.3415 16.4418C53.1895 16.4318 52.5115 16.377 52.4691 16.3869C52.0803 16.4717 52.1351 17.5086 52.3644 17.7703L52.7558 17.9772Z" fill="#222222"/>
<path d="M46.4892 23.4082C46.4244 23.8718 45.881 24.0363 45.9906 24.5473L47.4638 24.7118C47.4737 24.3877 47.4638 24.0463 47.2494 23.7795C47.1671 23.6774 46.5939 23.3359 46.4892 23.4082Z" fill="#222222"/>
<path d="M40.9209 32.1594C41.3097 32.2641 41.6537 32.3464 42.0251 32.5209C42.2096 32.6081 42.2345 32.8399 42.2644 32.8524C42.5685 32.982 42.8477 32.9322 43.0446 32.6505C43.0321 32.466 41.2225 31.469 40.9209 32.1594Z" fill="#222222"/>
<path d="M76.4332 80.5205C75.643 81.2783 75.3365 82.7464 74.9601 83.7933C74.7058 83.9902 73.7038 81.014 73.634 80.7025L72.6719 80.6825L74.7183 86.084C74.9875 86.1662 75.2318 85.4184 75.319 85.2116C75.4586 84.8825 76.0095 83.0231 76.1914 82.9732C76.5503 82.9009 76.3983 83.1278 76.4781 83.3346C76.7597 84.0675 77.0314 85.2365 77.3804 85.8771C77.4851 86.069 77.3754 86.1513 77.7443 86.084L79.873 80.685L78.9133 80.7075L77.7418 83.7933C77.4826 83.9952 76.4357 80.8595 76.4332 80.5205Z" fill="#222222"/>
<path d="M45.5024 80.685L47.5489 85.922C47.7408 86.1936 47.8031 86.0167 47.9352 85.8173C48.511 84.9474 48.5035 83.5615 49.2638 82.8112C49.3336 83.2075 50.1661 86.0341 50.3306 86.0865C50.6721 86.1961 50.8815 85.0795 51.0958 84.8875L52.7011 80.685C51.4647 79.8799 50.8092 84.1024 50.4129 83.7933L49.2638 80.5205C48.4736 81.3505 48.3664 82.8212 47.7109 83.7933L46.4621 80.7075L45.5024 80.685Z" fill="#222222"/>
<path d="M23.1986 80.7225C20.372 81.6672 21.0101 85.927 23.9862 86.094C24.5695 86.1264 25.5267 85.755 25.9703 85.3761C28.1962 83.4743 26.1747 79.7304 23.2011 80.725L23.1986 80.7225ZM24.1283 85.1568C23.0989 85.1568 22.2639 84.3218 22.2639 83.2923C22.2639 82.2629 23.0989 81.4279 24.1283 81.4279C25.1578 81.4279 25.9928 82.2629 25.9928 83.2923C25.9928 84.3218 25.1578 85.1568 24.1283 85.1568Z" fill="#222222"/>
<path d="M92.9637 86.0872V80.6858H91.9816V84.1231C90.8774 83.1584 89.8629 81.6504 88.7088 80.768C88.5443 80.6409 88.5019 80.4515 88.2178 80.5238V85.9252H89.0353V82.4879C89.2223 82.5876 89.484 82.7322 89.6336 82.8718C90.5409 83.7342 91.5554 85.1824 92.4676 85.9776C92.6521 86.1396 92.7393 86.0997 92.9662 86.0872H92.9637Z" fill="#222222"/>
<path d="M15.7134 83.1402V83.9603H16.86C16.7852 85.4334 14.5992 85.5132 13.9362 84.3467C12.9716 82.6517 14.7064 80.7124 16.359 81.5973C16.6731 81.7668 16.8899 82.3875 17.356 82.0859C18.2434 81.5126 16.6257 80.71 16.0499 80.5928C13.7144 80.1217 11.8424 82.7364 13.1884 84.7654C14.7612 87.1359 18.2683 86.0366 17.8421 83.1402H15.7134Z" fill="#222222"/>
<path d="M83.3073 82.4854L87.0711 86.2493V80.6858H86.2536V84.1231C84.9798 83.2606 84.1648 81.6729 82.9808 80.768C82.8163 80.6409 82.7739 80.4515 82.4897 80.5238V85.9252H83.3073V82.4879V82.4854Z" fill="#222222"/>
<path d="M62.2999 80.708L62.103 80.8376V85.7679C67.3499 87.2236 67.7089 79.7458 62.2999 80.7055V80.708ZM63.0128 85.1049V81.5031C66.1036 81.2464 66.1036 85.3592 63.0128 85.1049Z" fill="#222222"/>
<path d="M61.0188 82.5246C61.3877 80.3785 58.095 80.4283 57.9404 80.9293V85.6752L58.9225 85.922L59.0048 83.9578C59.765 84.6533 60.0666 86.3732 61.3802 85.8373L60.0841 83.8482C60.0641 83.5989 60.9016 83.2076 61.0188 82.5246ZM58.9225 82.9783V81.5026C60.5028 81.2683 60.4928 83.2175 58.9225 82.9783Z" fill="#222222"/>
<path d="M30.9454 84.3721C30.913 83.6193 30.1727 83.2554 30.1602 83.061C30.1502 82.9413 30.4718 82.5425 30.4568 82.0814C30.4095 80.7279 28.884 80.5409 27.8271 80.6855V85.9224C28.9987 86.0222 31.0177 86.0047 30.9479 84.3721H30.9454ZM28.6447 81.5031C29.891 81.3685 29.9832 82.9687 28.6447 82.8142V81.5031ZM28.6422 85.1049V83.6293C30.4519 83.3326 30.4344 85.4065 28.6422 85.1049Z" fill="#222222"/>
<path d="M97.8746 80.9319V85.6778L98.6921 85.9245V84.0426L99.0162 83.9604C99.5321 84.7979 100.103 86.3483 101.312 85.8398L99.8387 83.7111C102.319 82.3825 100.103 79.7304 97.8721 80.9294L97.8746 80.9319ZM99.6767 82.896C98.4728 83.4942 98.4454 81.6946 98.9613 81.5226C99.8686 81.2185 100.427 82.3227 99.6767 82.896Z" fill="#222222"/>
<path d="M56.4599 85.8474L57.4469 85.9222C56.6443 84.2422 56.0685 82.3752 55.1886 80.7351C55.1313 80.6254 54.9369 80.279 54.8297 80.3587L52.3745 85.9222L53.3342 85.9023C53.5759 85.1046 53.5311 84.8603 54.411 84.7681C55.5875 84.646 56.1408 84.631 56.4599 85.8474ZM54.1767 83.7935C54.5057 83.3523 54.7475 82.8762 54.8322 82.3229L55.3906 83.3149L55.4828 83.7935H54.1742H54.1767Z" fill="#222222"/>
<path d="M43.2116 80.5208L40.9209 85.9198C41.8581 86.0718 42.0625 85.5908 42.2519 84.7956H44.418C44.9539 85.4063 44.7047 86.1367 45.8313 85.9198C46.0083 85.7553 44.246 81.9092 44.0092 81.4431C43.9195 81.2661 43.5057 80.2541 43.2166 80.5183L43.2116 80.5208ZM42.7206 83.7936L43.4559 82.49L44.0267 83.7961H42.7181L42.7206 83.7936Z" fill="#222222"/>
<path d="M59.8997 7.89363L61.3654 8.15784C61.6545 8.63642 61.3953 9.10004 62.1854 9.09007C62.325 9.00034 61.5997 6.18122 61.4975 5.83724C61.4576 5.70762 61.3005 4.96982 61.0737 5.11439L58.8628 8.49185C59.4785 8.70871 59.6754 8.4096 59.8997 7.89363ZM60.9965 6.47784L61.2233 7.4325L60.3384 7.27297L60.9965 6.48033V6.47784Z" fill="#222222"/>
<path d="M68.7981 10.7128L70.0918 11.4506C70.204 11.9965 69.8076 12.3504 70.5529 12.6022C70.7149 12.5648 70.9692 9.66591 70.9866 9.30448C70.9941 9.16739 71.0888 8.4221 70.8271 8.48193L67.6191 10.9297C68.1276 11.3384 68.4118 11.1216 68.7981 10.7103V10.7128ZM70.3037 9.74318L70.2015 10.7178L69.4188 10.2716L70.3037 9.74318Z" fill="#222222"/>
<path d="M34.6992 80.6853H31.9997L31.7529 80.9321V85.678L31.9997 85.9222H34.6992V85.1047H32.735L32.7325 83.5618L34.6992 83.4695V82.6495L32.8073 82.4974L32.735 81.5029L34.6992 81.5054V80.6853Z" fill="#222222"/>
<path d="M38.6279 85.1046L36.4967 85.0124V83.4695C38.9195 83.8334 39.7172 82.4675 36.7684 82.6295C36.4867 82.5497 36.5241 82.3254 36.4917 82.0836C36.4693 81.8967 36.5092 81.6948 36.4992 81.5053H38.6279V80.6877H35.6816V85.9247H38.6279V85.1046Z" fill="#222222"/>
<path d="M95.0825 82.5772L94.9279 81.5029L96.7874 81.4804L97.0367 81.2387L97.0566 80.6853H94.1104V85.9222H96.8098L97.0566 85.1047H94.9279V83.467C97.5327 83.7811 98.0312 82.4974 95.0825 82.5772Z" fill="#222222"/>
<path d="M68.1301 81.5431C68.7283 81.0346 69.334 81.9519 69.4736 81.9544C69.506 81.9544 70.0095 81.6702 70.0245 81.6428C70.4582 80.9125 68.1151 79.8257 67.2851 81.2739C66.1609 83.2381 69.349 83.3951 69.3888 84.3597C69.4287 85.3643 67.7836 85.4365 67.7388 84.3024L67.0932 84.3548C66.3703 84.8483 67.8858 86.8075 69.4761 85.7556C70.2488 85.2446 70.5379 83.9734 69.8924 83.2555C69.5584 82.8866 67.2228 82.3108 68.1301 81.5381V81.5431Z" fill="#222222"/>
<path d="M18.8242 80.6853V85.9222H21.2794V85.1047H19.6418V80.6853H18.8242Z" fill="#222222"/>
<path d="M81.3434 80.6853H80.5259V85.9222H81.3434V80.6853Z" fill="#222222"/>
<path d="M114.173 1.98944C114.068 1.71526 113.652 1.43359 113.368 1.43359H112.007L111.922 1.51834V4.55183H112.772V3.47503L113.538 4.55183H114.53L113.625 3.33295C114.193 3.07871 114.402 2.58766 114.173 1.98944ZM113.194 2.78707C112.653 3.09366 112.777 2.45805 112.775 2.11407C113.261 1.95953 113.665 2.52036 113.194 2.78707Z" fill="#222222"/>
<path d="M113.228 0C111.578 0 110.235 1.34351 110.235 2.9936C110.235 4.6437 111.578 5.98721 113.228 5.98721C114.879 5.98721 116.222 4.6437 116.222 2.9936C116.222 1.34351 114.879 0 113.228 0ZM113.228 5.14471C112.042 5.14471 111.075 4.18008 111.075 2.99111C111.075 1.80215 112.04 0.837511 113.228 0.837511C114.417 0.837511 115.382 1.80215 115.382 2.99111C115.382 4.18008 114.417 5.14471 113.228 5.14471Z" fill="#222222"/>
<path d="M54.5107 6.1365L54.8098 6.55775H55.1986L54.8447 6.08166C55.0665 5.98196 55.1488 5.79003 55.059 5.55572C55.0167 5.44854 54.8546 5.33887 54.745 5.33887H54.214L54.1816 5.37127V6.55775H54.5132V6.1365H54.5107ZM54.5107 5.60557C54.7001 5.54575 54.8596 5.7651 54.6752 5.86979C54.4633 5.98943 54.5132 5.74017 54.5107 5.60557Z" fill="#222222"/>
<path d="M54.6901 7.11941C55.3357 7.11941 55.8616 6.59347 55.8616 5.94789C55.8616 5.3023 55.3357 4.77637 54.6901 4.77637C54.0445 4.77637 53.5186 5.3023 53.5186 5.94789C53.5186 6.59347 54.0445 7.11941 54.6901 7.11941ZM54.6901 5.10788C55.1537 5.10788 55.5326 5.48676 55.5326 5.95038C55.5326 6.414 55.1537 6.79288 54.6901 6.79288C54.2265 6.79288 53.8476 6.414 53.8476 5.95038C53.8476 5.48676 54.2265 5.10788 54.6901 5.10788Z" fill="#222222"/>
<path d="M89.5513 101.142C89.2422 100.332 88.0234 99.5098 87.1859 99.5098H83.1877L82.9385 99.759V108.673H85.4385V105.507L87.6869 108.673H90.6032L87.9411 105.091C89.6087 104.34 90.2268 102.902 89.5538 101.142H89.5513ZM86.6674 103.488C85.0821 104.39 85.441 102.521 85.4361 101.509C86.8618 101.053 88.0533 102.7 86.6674 103.488Z" fill="#222222"/>
</svg>
