<svg width="313" height="50" viewBox="0 0 313 50" fill="none" xmlns="http://www.w3.org/2000/svg">
<path d="M298.146 50.0005C287.297 50.0005 279.346 41.6447 279.346 31.3347V31.2C279.346 20.89 287.23 12.3994 298.281 12.3994C305.087 12.3994 309.332 14.6905 312.701 18.4641L306.435 25.2026C304.144 22.7768 301.852 21.2269 298.214 21.2269C293.092 21.2269 289.454 25.7417 289.454 31.0652V31.2C289.454 36.7256 293.025 41.173 298.618 41.173C302.055 41.173 304.413 39.6905 306.906 37.332L312.904 43.3967C309.4 47.2377 305.356 50.0005 298.146 50.0005Z" fill="#222222"/>
<path d="M262.987 9.09703V0H273.768V9.09703H262.987ZM263.256 49.1914V13.0728H273.499V49.1914H263.256Z" fill="#222222"/>
<path d="M236.642 49.1909V13.0723H246.884V20.3499C248.973 15.3634 252.342 12.1289 258.407 12.3985V23.1127H257.868C251.062 23.1127 246.884 27.2233 246.884 35.8486V49.1909H236.642Z" fill="#222222"/>
<path d="M214.687 49.8652C209.229 49.8652 205.859 47.372 203.434 44.4744V49.1914H193.191V0H203.434V18.2615C205.927 14.8922 209.363 12.3989 214.687 12.3989C223.11 12.3989 231.129 19.0027 231.129 31.0647V31.1995C231.129 43.2615 223.245 49.8652 214.687 49.8652ZM212.059 41.1725C216.843 41.1725 220.886 37.2642 220.886 31.1995V31.0647C220.886 25.0674 216.843 21.0916 212.059 21.0916C207.274 21.0916 203.299 25.0674 203.299 31.0647V31.1995C203.299 37.1968 207.274 41.1725 212.059 41.1725Z" fill="#222222"/>
<path d="M164.566 49.8652C156.142 49.8652 148.124 43.2615 148.124 31.1995V31.0647C148.124 19.0027 156.008 12.3989 164.566 12.3989C170.024 12.3989 173.393 14.8922 175.819 17.7898V0H186.062V49.1914H175.819V44.0027C173.326 47.372 169.889 49.8652 164.566 49.8652ZM167.194 41.1725C171.978 41.1725 175.954 37.1968 175.954 31.1995V31.0647C175.954 25.0674 171.978 21.0916 167.194 21.0916C162.409 21.0916 158.366 25 158.366 31.0647V31.1995C158.366 37.1968 162.409 41.1725 167.194 41.1725Z" fill="#222222"/>
<path d="M121.772 49.8657C114.023 49.8657 109.508 44.7444 109.508 36.456V13.0732H119.751V33.2215C119.751 38.0732 122.042 40.5665 125.95 40.5665C129.859 40.5665 132.352 38.0732 132.352 33.2215V13.0732H142.595V49.1918H132.352V44.0705C129.993 47.1029 126.961 49.8657 121.772 49.8657Z" fill="#222222"/>
<path d="M84.7737 50.0005C73.5877 50.0005 65.2993 41.7121 65.2993 31.3347V31.2C65.2993 20.8226 73.6551 12.3994 84.9085 12.3994C96.0945 12.3994 104.383 20.6878 104.383 31.0652V31.2C104.383 41.5773 96.0271 50.0005 84.7737 50.0005ZM84.9085 41.173C90.771 41.173 94.2751 36.6582 94.2751 31.3347V31.2C94.2751 25.8765 90.4341 21.2269 84.7737 21.2269C78.9112 21.2269 75.4071 25.7417 75.4071 31.0652V31.2C75.4071 36.5234 79.2481 41.173 84.9085 41.173Z" fill="#222222"/>
<path d="M49.2104 49.1914V0H59.453V49.1914H49.2104Z" fill="#222222"/>
<path d="M24.1914 50.0001C10.31 50.0001 0 39.2858 0 25.7413V25.6065C0 12.1968 10.1078 1.21301 24.5957 1.21301C33.4906 1.21301 38.814 4.17797 43.1941 8.49064L36.5903 16.1052C32.9515 12.8033 29.2453 10.7817 24.5283 10.7817C16.5768 10.7817 10.8491 17.3855 10.8491 25.4718V25.6065C10.8491 33.6928 16.442 40.4313 24.5283 40.4313C29.9191 40.4313 33.221 38.275 36.9272 34.9057L43.531 41.5769C38.6792 46.7656 33.2884 50.0001 24.1914 50.0001Z" fill="#222222"/>
</svg>
