<svg width="236" height="50" viewBox="0 0 236 50" fill="none" xmlns="http://www.w3.org/2000/svg">
<path d="M208.881 50C193.358 50 182.219 38.8812 182.219 25.1381V25C182.219 11.2569 193.502 0 209.025 0C224.548 0 235.687 11.1188 235.687 24.8619V25C235.687 38.7431 224.404 50 208.881 50ZM209.025 40.1934C217.936 40.1934 224.117 33.4254 224.117 25.1381V25C224.117 16.7127 217.793 9.80663 208.881 9.80663C199.97 9.80663 193.789 16.5746 193.789 24.8619V25C193.789 33.2873 200.114 40.1934 209.025 40.1934Z" fill="#222222"/>
<path d="M122.773 49.1716V0.829102H134.703L147.926 21.2711L161.15 0.829102H173.079V49.1716H162.084V17.6109L147.926 38.26H147.639L133.625 17.8181V49.1716H122.773Z" fill="#222222"/>
<path d="M62.4032 49.1712L83.9631 0.483398H94.1681L115.728 49.1712H104.158L99.5581 38.3287H78.2856L73.6862 49.1712H62.4032ZM82.2383 28.9364H95.6054L88.9219 13.2596L82.2383 28.9364Z" fill="#222222"/>
<path d="M45.2889 49.1708V38.1211H56.9313V49.1708H45.2889Z" fill="#222222"/>
<path d="M0 49.1716V0.829102H19.6195C35.4301 0.829102 46.3538 11.2573 46.3538 24.8622V25.0004C46.3538 38.6053 35.4301 49.1716 19.6195 49.1716H0ZM19.6195 10.4285H11.0674V39.5722H19.6195C28.6747 39.5722 34.7833 33.702 34.7833 25.1385V25.0004C34.7833 16.4368 28.6747 10.4285 19.6195 10.4285Z" fill="#222222"/>
</svg>
