<svg width="163" height="50" viewBox="0 0 163 50" fill="none" xmlns="http://www.w3.org/2000/svg">
<path d="M55.3521 49.1917V2.02148H65.7295V49.1917H55.3521Z" fill="black"/>
<path d="M33.2719 49.8655C26.129 49.8655 18.9187 47.3723 13.2583 42.3183L19.3904 34.9732C23.6357 38.4773 28.0832 40.7011 33.4741 40.7011C37.7194 40.7011 40.2801 39.0164 40.2801 36.2536V36.1188C40.2801 33.4908 38.6628 32.143 30.7786 30.1215C21.2772 27.6956 15.1451 25.0675 15.1451 15.7009V15.5661C15.1451 7.00807 22.0185 1.34766 31.6547 1.34766C38.528 1.34766 44.3906 3.50401 49.175 7.345L43.7841 15.1618C39.6062 12.2642 35.4957 10.5121 31.5199 10.5121C27.5441 10.5121 25.4552 12.3316 25.4552 14.6227V14.7575C25.4552 17.8572 27.4767 18.868 35.6304 20.957C45.1992 23.4502 50.5901 26.8869 50.5901 35.108V35.2428C50.5901 44.6094 43.4472 49.8655 33.2719 49.8655Z" fill="black"/>
<path d="M0 9.0971V0H10.7818V9.0971H0ZM0.269544 49.1917V13.0729H10.5122V49.1917H0.269544Z" fill="black"/>
<path d="M120.926 49.1917V2.02148H130.495L152.597 31.0648V2.02148H162.84V49.1917H154.012L131.168 19.2049V49.1917H120.926Z" fill="black"/>
<path d="M95.509 50.0003C80.8188 50.0003 70.7109 39.6903 70.7109 25.7414V25.6066C70.7109 12.1968 81.1558 1.21289 95.4416 1.21289C103.932 1.21289 109.054 3.50401 113.973 7.68194L107.436 15.5661C103.797 12.5337 100.563 10.7817 95.1046 10.7817C87.5574 10.7817 81.5601 17.4529 81.5601 25.4718V25.6066C81.5601 34.232 87.49 40.5663 95.8459 40.5663C99.6195 40.5663 102.989 39.6229 105.617 37.7361V30.9975H95.172V22.0351H115.657V42.5205C110.806 46.631 104.134 50.0003 95.509 50.0003Z" fill="black"/>
</svg>
