<svg width="206" height="24" viewBox="0 0 206 24" fill="none" xmlns="http://www.w3.org/2000/svg">
<path d="M68.1078 18.4551C67.0659 22.4311 68.4791 23.1617 73.1737 23.1617H77.3893L78.4431 19.1856H76.8024C75.6048 19.1856 75.1258 18.8264 75.4012 17.7964L77.6647 9.20958H80.8144L81.8563 5.24551H78.7186L80.1078 0H72.9821L71.5928 5.24551H68.4312L67.3893 9.20958H70.539L68.1198 18.4551H68.1078Z" fill="#222222"/>
<path d="M97.4133 23.1613L100.862 10.0834C101.88 6.25111 98.4672 5.24512 96.2636 5.24512H83.7127L82.6708 9.20919H92.1917C93.5091 9.20919 93.8324 9.8559 93.4372 11.3529L91.3654 19.1972H88.9821C87.6648 19.1972 87.3414 18.5745 87.7247 17.0894L89.3534 10.9337L81.3773 14.0834L80.2516 18.3469C79.2336 22.1912 81.533 23.1733 84.7785 23.1733H97.4013L97.4133 23.1613Z" fill="#222222"/>
<path d="M61.2453 5.24512H48.6106L47.5687 9.20919H54.2513L46.7783 12.1673L43.8681 23.1613H51.0298L54.7064 9.20919H57.0178C58.3352 9.20919 58.6585 9.85589 58.2633 11.3529L55.1495 23.1613H62.2992L65.7483 10.0834C66.7663 6.25111 64.4789 5.24512 61.2334 5.24512H61.2453Z" fill="#222222"/>
<path d="M26.4191 9.20919H33.1736L25.6407 12.1673L24.0239 18.2751C23.006 22.1194 25.485 23.1613 28.7305 23.1613H41.497L42.5389 19.1972H32.7904C31.6527 19.1972 31.2096 18.5385 31.6048 17.0415L31.8323 16.2152H43.0658L44.6946 10.0834C45.7125 6.25111 43.4251 5.24512 40.1796 5.24512H30.8742C29.1617 5.24512 27.2335 5.92775 26.4191 9.20919ZM35.976 9.20919C37.2934 9.20919 37.6167 9.85589 37.2215 11.3529L37.0179 12.1673H32.8982L33.6766 9.20919H35.976Z" fill="#222222"/>
<path d="M2.8024 0L1.7485 3.98802H12.1916L4.26347 6.98204L0 23.1617H7.67665L9.7485 15.3293H9.92814L16.012 15.3653C19.6407 15.3653 22.8024 14.2275 23.9761 9.94012L25.1856 5.38922C26.3234 1.1018 23.2455 0.011976 20.1437 0.011976H2.8024V0ZM16.4551 8.57485C16 10.2395 15.2575 10.9222 13.7844 10.9222H10.9102L12.7425 3.98802H15.6407C17.1018 3.98802 17.4731 4.65868 17.0299 6.32335L16.4431 8.57485H16.4551Z" fill="#222222"/>
<path d="M106.419 10.2518C107.832 5.50926 109.617 5.07812 113.88 5.07812C117.341 5.07812 119.797 5.24579 118.168 10.0841H116.347C117.186 6.98232 116.946 6.85058 113.282 6.85058C109.617 6.85058 109.042 7.52124 108.359 9.82064C107.353 13.2099 108.898 12.9224 111.856 13.0182C115.593 13.2578 117.521 13.2937 116.096 18.12C114.599 23.15 112.419 23.3176 108.371 23.3176C104.323 23.3176 102.335 22.7667 104.204 17.617H106.024C104.815 21.5332 105.497 21.5332 108.898 21.5332C112.3 21.5332 113.258 21.5332 114.288 18.0482C115.294 14.659 113.785 15.0661 110.934 14.8027C107.856 14.5153 105.006 14.9464 106.407 10.2518H106.419Z" fill="#222222"/>
<path d="M120.839 13.0535H129.09L128.647 14.7182H120.395L118.635 21.3888H127.078L126.611 23.1613H116.3L121.03 5.24512H131.342L130.874 7.02955H122.419L120.839 13.0535Z" fill="#222222"/>
<path d="M160.096 5.24512L156.683 18.1912C155.389 23.1493 152.779 23.317 148.994 23.317C145.485 23.317 142.671 23.2212 143.988 18.1912L147.401 5.24512H149.222L145.809 18.1912C145.054 21.0894 145.545 21.5325 149.461 21.5325C152.683 21.5325 154.096 21.0775 154.874 18.1912L158.288 5.24512H160.096Z" fill="#222222"/>
<path d="M173.737 23.1613H171.916L176.647 5.24512H178.467L173.749 23.1613H173.737Z" fill="#222222"/>
<path d="M182.395 23.1613H180.575L184.838 7.0056H179.641L180.108 5.24512H192.323L191.856 7.0056H186.659L182.395 23.1613Z" fill="#222222"/>
<path d="M197.425 15.5924L195.437 23.1613H193.617L195.617 15.5924L192.252 5.24512H194.371L197.09 13.5445L203.844 5.24512H206L197.437 15.5924H197.425Z" fill="#222222"/>
<path d="M140.144 18.5626C139.533 21.1016 138.563 21.5567 135.641 21.5567H133.713C130.683 21.5567 131.018 19.5686 132 15.5087L133.306 10.6225C134.096 7.37701 135.545 6.87402 139.306 6.87402H140.336C142.623 6.87402 142.91 7.76024 142.372 10.1075H144.192C144.97 6.88599 143.928 5.74827 142.372 5.32911C141.581 5.11354 139.521 5.10156 139.521 5.10156C135.629 5.10156 132.695 5.66444 131.473 10.7064L129.629 17.7483C128.767 21.3052 130.012 23.3531 132.934 23.3531H135.27C138.479 23.3531 140.91 22.898 141.893 18.8261L142.252 17.4968H140.431L140.12 18.5866L140.144 18.5626Z" fill="#222222"/>
<path d="M169.641 5.22191H169.629H162.228L157.497 23.162H159.293L161.21 15.9045H167.042C169.246 15.9045 169.449 16.9944 168.85 19.2459L167.808 23.162H169.617L170.898 18.2998C171.413 16.3836 170.934 15.2339 169.174 15.1021V15.0542C171.773 14.695 172.539 12.9225 173.186 10.5033L173.222 10.3836C173.222 10.3836 173.222 10.3716 173.222 10.3596L173.258 10.2039C174.156 6.31173 172.97 5.25784 169.605 5.24586L169.641 5.22191ZM167.293 14.1201H161.689L163.569 7.00634H169.162C170.707 7.00634 171.437 7.25784 171.689 7.84466C171.892 8.34766 171.761 9.09017 171.485 10.1321C170.707 13.0782 170.108 14.0243 167.281 14.1201H167.293Z" fill="#222222"/>
</svg>
