<svg width="340" height="50" viewBox="0 0 340 50" fill="none" xmlns="http://www.w3.org/2000/svg">
<path d="M321.353 50C313.996 50 306.57 47.4306 300.74 42.2222L307.056 34.6528C311.428 38.2639 316.009 40.5556 321.561 40.5556C325.934 40.5556 328.571 38.8194 328.571 35.9722V35.8333C328.571 33.125 326.905 31.7361 318.785 29.6528C308.999 27.1528 302.684 24.4444 302.684 14.7917V14.6528C302.684 5.83333 309.763 0 319.687 0C326.766 0 332.804 2.22222 337.732 6.18055L332.18 14.2361C327.877 11.25 323.643 9.44445 319.549 9.44445C315.454 9.44445 313.302 11.3194 313.302 13.6806V13.8194C313.302 17.0139 315.384 18.0556 323.782 20.2083C333.637 22.7778 339.19 26.3194 339.19 34.7917V34.9306C339.19 44.5833 331.833 50 321.353 50Z" fill="#222222"/>
<path d="M258.27 49.3055V0.694336H294.915V10.2082H268.889V20.0693H291.792V29.5832H268.889V39.7916H295.262V49.3055H258.27Z" fill="#222222"/>
<path d="M215.995 49.3055V0.694336H226.683V39.5832H250.905V49.3055H215.995Z" fill="#222222"/>
<path d="M170.33 49.3055V0.694336H190.179C201.77 0.694336 208.779 7.56934 208.779 17.4999V17.6388C208.779 28.8888 200.035 34.7221 189.138 34.7221H181.018V49.3055H170.33ZM181.018 25.2082H189.485C194.829 25.2082 197.953 22.0138 197.953 17.8471V17.7082C197.953 12.9166 194.621 10.3471 189.277 10.3471H181.018V25.2082Z" fill="#222222"/>
<path d="M124.666 49.3055V0.694336H144.515C156.105 0.694336 163.115 7.56934 163.115 17.4999V17.6388C163.115 28.8888 154.37 34.7221 143.474 34.7221H135.354V49.3055H124.666ZM135.354 25.2082H143.821C149.165 25.2082 152.288 22.0138 152.288 17.8471V17.7082C152.288 12.9166 148.957 10.3471 143.613 10.3471H135.354V25.2082Z" fill="#222222"/>
<path d="M66.3643 49.305L87.185 0.34668H97.0402L117.861 49.305H106.687L102.245 38.4022H81.7022L77.2605 49.305H66.3643ZM85.5194 28.9578H98.4283L91.9738 13.1939L85.5194 28.9578Z" fill="#222222"/>
<path d="M16.5872 49.6529L0 0.694551H11.4514L21.5148 33.6112L32.411 0.555664H41.5722L52.4684 33.6112L62.5318 0.694551H73.7056L57.1184 49.6529H47.8184L36.8528 17.8473L25.8872 49.6529H16.5872Z" fill="#222222"/>
</svg>
